<?xml version="1.0" encoding="UTF-8" standalone="no"?>
<svg
   version="1.0"
   width="1024.000000pt"
   height="1024.000000pt"
   viewBox="0 0 1024.000000 1024.000000"
   preserveAspectRatio="xMidYMid meet"
   id="svg53"
   sodipodi:docname="UF3ZL01.svg"
   inkscape:version="1.3.2 (091e20e, 2023-11-25)"
   xmlns:inkscape="http://www.inkscape.org/namespaces/inkscape"
   xmlns:sodipodi="http://sodipodi.sourceforge.net/DTD/sodipodi-0.dtd"
   xmlns="http://www.w3.org/2000/svg"
   xmlns:svg="http://www.w3.org/2000/svg">
  <defs
     id="defs53" />
  <sodipodi:namedview
     id="namedview53"
     pagecolor="#505050"
     bordercolor="#eeeeee"
     borderopacity="1"
     inkscape:showpageshadow="0"
     inkscape:pageopacity="0"
     inkscape:pagecheckerboard="0"
     inkscape:deskcolor="#d1d1d1"
     inkscape:document-units="pt"
     inkscape:zoom="0.4136389"
     inkscape:cx="738.5669"
     inkscape:cy="389.22838"
     inkscape:window-width="1712"
     inkscape:window-height="1041"
     inkscape:window-x="0"
     inkscape:window-y="43"
     inkscape:window-maximized="1"
     inkscape:current-layer="svg53" />
  <g
     transform="matrix(0.11996821,0,0,-0.11996821,-101.85406,1128.536)"
     fill="#000000"
     stroke="none"
     id="g53"
     style="stroke-width:8.33554154;stroke-dasharray:none">
    <path
       d="m 4833,9184 c -56,-6 -110,-14 -119,-18 -20,-8 -147,-19 -184,-17 -24,2 -113,-22 -157,-42 -12,-5 -35,-7 -51,-4 -22,4 -32,2 -36,-9 -4,-12 -14,-14 -37,-9 -22,5 -36,2 -49,-10 -11,-10 -20,-12 -24,-6 -4,6 -13,8 -20,5 -8,-3 -17,-1 -21,5 -13,22 -24,11 -15,-15 9,-22 8,-25 -5,-20 -35,13 -305,-68 -305,-92 0,-11 -3,-12 -13,-3 -9,7 -24,8 -43,2 -16,-4 -35,-6 -43,-3 -10,3 -12,0 -8,-11 7,-18 -21,-31 -47,-21 -12,4 -16,0 -16,-15 0,-24 -10,-27 -28,-9 -16,16 -28,2 -13,-16 9,-11 8,-15 -3,-19 -8,-3 -17,-1 -19,6 -3,9 -8,9 -20,-2 -14,-11 -18,-11 -23,3 -5,12 -12,9 -37,-18 -18,-18 -49,-39 -69,-47 -21,-7 -38,-19 -38,-26 0,-7 -7,-10 -15,-7 -8,4 -17,-1 -21,-10 -3,-9 -10,-13 -15,-10 -5,3 -22,-4 -39,-16 -20,-14 -37,-19 -54,-14 -21,5 -26,3 -26,-14 0,-10 -11,-28 -25,-38 -14,-10 -25,-25 -25,-33 0,-11 -3,-11 -15,-1 -15,13 -21,10 -61,-25 -7,-5 -46,-35 -88,-65 -42,-30 -76,-57 -76,-60 0,-3 -20,-14 -45,-25 -25,-11 -45,-26 -45,-32 0,-7 -11,-13 -25,-13 -14,0 -25,-4 -25,-10 0,-5 -13,-7 -30,-3 -24,4 -30,2 -30,-12 0,-14 -3,-15 -14,-6 -10,9 -159,12 -552,12 -297,0 -556,-2 -577,-5 -43,-5 -117,-49 -117,-70 0,-8 -6,-16 -14,-19 -17,-7 -17,-2 -21,-182 -11,-525 -7,-1456 7,-1472 6,-7 8,-27 5,-45 -3,-18 -8,-49 -11,-68 -3,-22 -1,-37 7,-42 8,-5 7,-8 -5,-8 -14,0 -18,-8 -18,-32 0,-18 -10,-58 -21,-88 -12,-30 -25,-80 -30,-110 -15,-100 -21,-120 -35,-120 -8,0 -14,-7 -14,-16 0,-10 6,-14 15,-10 9,3 15,0 15,-9 0,-8 -7,-15 -16,-15 -12,0 -14,-7 -9,-32 6,-27 5,-30 -10,-24 -15,5 -16,2 -11,-29 5,-23 3,-35 -4,-35 -7,0 -10,-12 -9,-28 2,-15 0,-33 -5,-40 -4,-7 -5,-20 -2,-28 3,-8 0,-24 -6,-34 -9,-14 -10,-22 -1,-31 8,-8 7,-18 -2,-37 -14,-29 -41,-255 -32,-269 3,-5 -1,-60 -9,-123 -10,-78 -13,-155 -8,-240 8,-167 10,-185 18,-199 5,-7 7,-28 6,-47 -3,-55 -1,-76 9,-139 5,-33 10,-84 10,-114 1,-56 18,-121 36,-133 6,-5 6,-11 -2,-19 -9,-9 -9,-18 -2,-32 6,-10 9,-32 7,-47 -3,-21 -1,-27 10,-22 12,4 14,-2 9,-36 -3,-23 -1,-42 4,-42 5,0 9,-10 9,-23 0,-12 7,-32 15,-44 9,-12 18,-42 20,-67 5,-47 51,-195 65,-210 5,-5 6,-23 3,-40 -6,-29 -5,-30 11,-17 16,14 17,12 11,-21 -4,-23 -3,-38 5,-43 8,-5 8,-10 -1,-21 -9,-11 -8,-14 4,-14 8,0 17,6 20,13 4,9 7,9 18,0 9,-10 10,-13 1,-13 -19,0 -14,-24 8,-38 11,-7 20,-23 20,-37 0,-14 4,-25 8,-25 5,0 16,-28 26,-62 10,-35 20,-69 22,-77 3,-10 8,-10 18,-2 10,9 13,1 15,-42 1,-28 4,-63 5,-77 2,-14 4,-429 5,-922 l 1,-897 989,-3 c 544,-2 993,-7 997,-11 5,-4 2,-12 -5,-17 -10,-6 -2,-12 30,-21 24,-7 48,-16 54,-21 5,-4 20,-8 32,-8 13,0 33,-9 45,-20 12,-11 34,-20 48,-20 15,0 48,-3 74,-6 31,-5 46,-3 46,5 0,6 -9,11 -20,11 -11,0 -29,5 -40,10 -11,6 -29,15 -40,20 -11,6 -29,10 -40,10 -11,0 -20,5 -20,10 0,6 -11,10 -25,10 -14,0 -25,5 -25,10 0,6 -9,10 -19,10 -11,0 -23,5 -26,10 -3,6 -15,10 -26,10 -10,0 -19,5 -19,10 0,6 -5,10 -11,10 -11,0 -127,52 -169,76 -14,8 -50,26 -80,41 -30,15 -57,30 -60,33 -3,3 -22,14 -42,23 -20,10 -43,23 -50,30 -7,7 -34,23 -61,36 -26,13 -47,28 -47,33 0,4 -5,8 -11,8 -9,0 -97,55 -109,69 -3,3 -17,12 -32,20 -16,8 -28,18 -28,23 0,4 -4,8 -10,8 -5,0 -31,16 -57,36 -27,20 -61,45 -78,57 -16,12 -45,36 -65,53 -19,17 -44,37 -56,45 -79,54 -345,312 -454,440 -93,109 -97,115 -168,209 -35,47 -69,92 -75,100 -7,8 -18,28 -26,43 -8,15 -18,27 -23,27 -4,0 -8,7 -8,15 0,8 -4,15 -10,15 -5,0 -10,7 -10,15 0,8 -4,15 -10,15 -5,0 -10,7 -10,15 0,8 -3,15 -7,15 -5,0 -13,10 -19,23 -30,60 -60,112 -66,115 -5,2 -8,10 -8,17 0,7 -4,15 -8,17 -7,3 -92,171 -123,246 -8,17 -17,32 -21,32 -5,0 -8,9 -8,19 0,11 -10,39 -21,63 -12,23 -26,54 -32,68 -5,14 -13,33 -18,42 -5,10 -9,27 -9,38 0,11 -4,20 -10,20 -5,0 -10,11 -10,24 0,14 -4,28 -10,31 -5,3 -10,17 -10,30 0,13 -4,27 -10,30 -5,3 -10,17 -10,30 0,13 -5,27 -10,30 -6,3 -10,17 -10,30 0,13 -4,27 -10,30 -5,3 -10,22 -10,41 0,19 -4,34 -10,34 -5,0 -10,16 -10,35 0,19 -4,35 -10,35 -5,0 -10,18 -10,39 0,22 -5,43 -10,46 -6,3 -10,24 -10,46 0,21 -4,39 -10,39 -5,0 -10,22 -10,49 0,28 -4,53 -10,56 -5,3 -10,31 -10,61 0,30 -4,54 -10,54 -6,0 -10,29 -10,68 0,37 -4,72 -9,78 -29,28 -29,860 0,889 5,5 9,36 9,70 0,34 4,65 9,71 5,5 12,34 15,64 11,113 18,155 27,164 5,6 9,25 9,42 0,18 5,36 10,39 6,3 10,24 10,45 0,21 5,42 10,45 6,3 10,19 10,35 0,16 4,32 10,35 5,3 10,19 10,35 0,16 5,32 10,35 6,3 10,17 10,30 0,13 5,27 10,30 6,3 10,16 10,29 0,12 3,26 7,30 8,8 5,1830 -3,1863 l -6,23 h 669 c 655,0 670,0 691,20 12,11 25,20 30,20 4,0 21,14 37,30 16,17 34,30 39,30 6,0 25,14 43,30 18,17 34,30 37,30 3,0 29,18 58,40 29,22 59,40 66,40 6,0 12,4 12,8 0,5 20,19 45,32 25,13 45,26 45,30 0,3 16,12 35,20 19,8 35,17 35,20 0,3 16,12 35,20 19,8 35,17 35,22 0,4 9,8 19,8 11,0 21,3 23,8 4,10 87,52 104,52 8,0 14,5 14,10 0,6 9,10 20,10 11,0 20,5 20,10 0,6 11,10 25,10 14,0 25,5 25,10 0,6 9,10 19,10 11,0 23,5 26,10 3,6 17,10 31,10 13,0 24,5 24,10 0,6 9,10 19,10 11,0 23,5 26,10 3,6 17,10 30,10 13,0 27,5 30,10 3,6 17,10 31,10 13,0 24,5 24,10 0,6 14,10 30,10 17,0 30,5 30,10 0,6 13,10 29,10 17,0 33,5 36,10 3,6 19,10 36,10 16,0 29,5 29,10 0,6 18,10 39,10 22,0 43,5 46,10 3,6 21,10 40,10 19,0 37,5 40,10 3,6 26,10 50,10 24,0 47,5 50,10 3,6 26,10 50,10 24,0 47,5 50,10 3,6 33,10 66,10 32,0 59,4 59,9 0,11 61,16 365,31 122,6 211,14 213,20 2,5 18,10 35,9 30,-1 30,-1 7,-8 l -25,-7 25,-7 c 14,-4 84,-7 157,-7 77,0 134,-4 138,-10 3,-5 42,-10 85,-10 43,0 82,-4 85,-10 3,-5 30,-10 60,-10 30,0 57,-4 60,-10 3,-5 26,-10 50,-10 24,0 47,-4 50,-10 3,-5 26,-10 50,-10 24,0 47,-4 50,-10 3,-5 19,-10 35,-10 16,0 32,-4 35,-10 3,-5 21,-10 40,-10 19,0 37,-4 40,-10 3,-5 19,-10 36,-10 16,0 29,-4 29,-10 0,-5 13,-10 29,-10 17,0 33,-4 36,-10 3,-5 17,-10 30,-10 13,0 27,-4 30,-10 3,-5 17,-10 31,-10 13,0 24,-4 24,-10 0,-5 11,-10 24,-10 14,0 28,-4 31,-10 3,-5 15,-10 26,-10 10,0 19,-4 19,-10 0,-5 11,-10 25,-10 14,0 25,-4 25,-10 0,-5 11,-10 25,-10 14,0 25,-4 25,-10 0,-5 9,-10 20,-10 11,0 20,-4 20,-10 0,-5 9,-10 20,-10 11,0 20,-4 20,-10 0,-5 6,-10 14,-10 17,0 100,-42 104,-52 2,-5 12,-8 23,-8 10,0 19,-4 19,-9 0,-5 8,-11 18,-14 19,-7 94,-50 134,-78 14,-11 29,-19 32,-19 4,0 16,-9 28,-20 12,-11 28,-20 35,-20 7,0 13,-4 13,-8 0,-5 12,-15 28,-23 15,-8 41,-26 57,-41 17,-16 34,-28 38,-28 4,0 22,-13 40,-30 18,-16 37,-30 42,-30 6,-1 28,-19 50,-40 l 40,-40 h 668 667 v -952 c -1,-650 2,-954 10,-962 5,-5 10,-23 10,-38 0,-15 5,-28 10,-28 6,0 10,-13 10,-29 0,-17 5,-33 10,-36 6,-3 10,-22 10,-41 0,-19 5,-34 10,-34 6,0 10,-15 10,-34 0,-19 5,-38 10,-41 6,-3 10,-24 10,-45 0,-21 5,-42 10,-45 6,-3 10,-24 10,-45 0,-21 5,-42 10,-45 6,-3 10,-28 10,-55 0,-27 5,-52 10,-55 6,-3 10,-35 10,-71 0,-36 4,-64 10,-64 6,0 10,-35 10,-84 0,-47 5,-88 10,-91 6,-4 10,-130 10,-345 0,-215 -4,-341 -10,-345 -5,-3 -10,-44 -10,-91 0,-49 -4,-84 -10,-84 -6,0 -10,-26 -10,-59 0,-33 -5,-63 -10,-66 -5,-3 -10,-31 -10,-61 0,-30 -4,-54 -10,-54 -5,0 -10,-18 -10,-39 0,-22 -5,-43 -10,-46 -6,-3 -10,-24 -10,-45 0,-21 -4,-42 -10,-45 -5,-3 -10,-19 -10,-35 0,-16 -4,-32 -10,-35 -5,-3 -10,-21 -10,-40 0,-19 -4,-37 -10,-40 -5,-3 -10,-19 -10,-36 0,-16 -4,-29 -10,-29 -5,0 -10,-13 -10,-29 0,-17 -4,-33 -10,-36 -5,-3 -10,-17 -10,-31 0,-13 -4,-24 -10,-24 -5,0 -10,-13 -10,-30 0,-16 -4,-30 -10,-30 -5,0 -10,-9 -10,-20 0,-11 -4,-29 -10,-40 -5,-11 -14,-29 -20,-40 -5,-11 -10,-29 -10,-40 0,-11 -4,-20 -10,-20 -5,0 -10,-9 -10,-20 0,-11 -4,-20 -10,-20 -5,0 -10,-8 -10,-17 0,-10 -18,-56 -41,-103 -23,-47 -46,-96 -53,-110 -6,-14 -13,-27 -16,-30 -3,-3 -23,-40 -44,-83 -21,-43 -43,-83 -50,-90 -6,-7 -22,-33 -35,-59 -13,-27 -28,-48 -33,-48 -4,0 -8,-5 -8,-11 0,-9 -55,-97 -69,-109 -3,-3 -12,-17 -20,-32 -8,-16 -18,-28 -23,-28 -4,0 -8,-5 -8,-10 0,-9 -92,-135 -109,-150 -4,-3 -19,-22 -34,-43 -16,-20 -39,-48 -51,-60 -13,-13 -25,-28 -27,-34 -13,-37 -444,-448 -483,-462 -6,-2 -22,-14 -36,-26 -39,-36 -200,-155 -209,-155 -4,0 -16,-9 -26,-20 -10,-11 -23,-20 -30,-20 -7,0 -20,-9 -30,-20 -10,-11 -22,-20 -27,-20 -5,0 -29,-14 -53,-30 -24,-17 -48,-30 -54,-30 -6,0 -11,-3 -11,-7 0,-5 -10,-13 -23,-19 -83,-42 -152,-80 -155,-86 -2,-5 -12,-8 -23,-8 -10,0 -19,-3 -19,-8 0,-4 -15,-13 -32,-21 -18,-7 -61,-26 -95,-42 -34,-16 -67,-29 -72,-29 -6,0 -11,-4 -11,-10 0,-5 -9,-10 -19,-10 -11,0 -23,-5 -26,-10 -3,-6 -15,-10 -26,-10 -10,0 -19,-7 -19,-15 0,-11 -7,-14 -25,-9 -15,4 -25,2 -25,-5 0,-6 -11,-11 -24,-11 -14,0 -28,-4 -31,-10 -3,-5 -17,-10 -31,-10 -13,0 -24,-4 -24,-10 0,-5 -14,-10 -32,-10 -24,0 -29,-3 -21,-11 8,-8 28,-9 74,0 34,6 66,8 70,5 8,-5 67,32 80,50 4,5 14,6 23,3 8,-3 18,-2 20,2 3,5 19,11 36,14 17,4 29,12 28,19 -2,8 15,15 47,19 28,4 469,8 980,8 l 930,1 -3,782 c -4,818 5,1097 33,1128 12,13 12,19 2,29 -10,10 -8,12 7,9 17,-3 22,9 39,77 11,44 23,82 27,85 4,3 11,23 15,45 6,33 9,37 15,20 5,-11 9,-49 10,-85 1,-100 19,-51 21,56 1,74 4,93 21,111 12,13 21,37 22,62 1,23 7,46 14,53 7,7 12,22 12,33 0,12 9,48 21,81 11,32 23,73 26,91 3,22 9,30 19,26 8,-3 14,0 14,6 0,6 -4,11 -10,11 -15,0 -11,61 5,90 8,14 14,44 15,68 0,23 7,54 16,68 11,15 20,62 26,122 9,107 11,126 27,257 16,127 9,789 -8,809 -7,8 -10,24 -6,36 4,12 2,27 -4,34 -6,7 -12,42 -13,79 -2,37 -6,67 -10,67 -4,0 -4,15 -1,34 3,19 1,36 -6,40 -14,9 -15,46 -1,46 6,0 10,7 10,16 0,13 -3,14 -15,4 -16,-13 -15,-15 -36,102 -6,37 -8,80 -4,95 5,23 4,25 -10,13 -21,-17 -27,-9 -30,40 -3,42 -32,147 -46,165 -4,6 -6,55 -5,110 2,55 -1,108 -6,118 -6,12 -4,19 7,23 8,3 12,11 9,16 -4,5 -5,96 -4,201 6,517 6,1044 -2,1065 -4,13 -5,29 -1,35 12,18 12,103 1,202 -15,134 -51,181 -151,192 -42,4 -520,6 -602,1 -11,0 -76,0 -145,1 -69,2 -127,2 -130,1 -3,0 -62,-2 -132,-3 -89,-1 -128,1 -128,9 0,7 -16,11 -39,10 -27,0 -50,7 -71,22 -19,14 -38,21 -50,17 -15,-5 -17,-2 -13,15 4,14 1,20 -10,20 -9,0 -31,13 -49,28 -18,16 -45,32 -60,36 -16,3 -28,11 -28,17 0,15 -26,39 -43,39 -9,0 -17,3 -19,8 -10,22 -70,60 -87,55 -23,-6 -51,17 -51,42 0,10 -6,15 -17,13 -10,-2 -23,3 -29,11 -6,8 -25,14 -42,14 -24,0 -29,3 -21,13 12,14 -5,29 -21,19 -6,-3 -12,0 -15,7 -3,8 -29,23 -57,33 -28,11 -53,28 -56,37 -3,13 -11,16 -28,12 -17,-4 -24,-2 -24,9 0,10 -15,17 -46,22 -26,3 -48,13 -51,21 -3,8 -12,13 -19,10 -8,-3 -14,-2 -14,3 0,4 -11,14 -25,21 -20,11 -27,11 -40,0 -8,-7 -15,-8 -15,-2 0,5 -15,15 -32,22 -18,6 -41,16 -50,21 -10,5 -28,9 -42,9 -13,0 -29,7 -36,15 -7,8 -23,15 -36,15 -13,0 -24,5 -24,10 0,7 -13,8 -34,5 -25,-5 -35,-3 -39,10 -5,12 -14,15 -43,9 -19,-3 -45,-2 -57,4 -12,6 -31,14 -42,18 -27,10 -149,34 -210,41 -27,3 -54,9 -60,13 -5,4 -46,11 -90,15 -44,4 -118,13 -165,21 -47,8 -115,14 -150,14 -36,0 -72,0 -80,1 -132,6 -357,2 -437,-7 z M 1765,3156 c 0,0 6,-10 13,-21 7,-11 15,-28 18,-37 4,-10 10,-18 15,-18 17,0 49,-35 49,-52 0,-10 16,-35 35,-57 19,-21 35,-42 35,-46 0,-4 8,-15 18,-24 9,-9 25,-33 36,-53 10,-20 38,-58 62,-84 24,-26 44,-53 44,-60 0,-7 14,-23 30,-36 17,-12 30,-27 30,-33 0,-6 20,-30 45,-53 25,-23 45,-46 45,-51 0,-6 6,-14 14,-18 8,-5 19,-19 25,-33 7,-18 10,-20 10,-7 1,23 18,22 26,-2 8,-27 122,-143 173,-176 23,-15 42,-34 42,-41 0,-8 4,-14 10,-14 5,0 24,-15 42,-32 38,-37 94,-78 108,-78 6,0 10,-7 10,-15 0,-8 11,-22 25,-32 14,-10 51,-37 82,-60 47,-36 59,-41 71,-30 13,10 15,9 10,-10 -4,-16 -2,-23 8,-23 8,0 40,-20 72,-45 31,-25 62,-45 69,-45 7,0 10,-7 7,-15 -4,-8 -1,-15 5,-15 6,0 11,4 11,9 0,5 11,4 25,-2 16,-8 25,-20 25,-34 0,-18 6,-23 25,-23 27,0 92,-59 97,-87 4,-21 -34,-32 -83,-26 -21,3 -39,0 -43,-6 -9,-14 -59,-14 -72,-1 -7,7 -214,11 -590,11 -318,1 -608,3 -642,6 -57,5 -63,8 -59,25 4,15 1,18 -14,13 -13,-4 -21,-1 -26,11 -4,10 -2,19 3,21 5,2 5,93 -2,235 -7,128 -9,237 -6,242 3,5 7,208 8,450 2,243 6,451 9,464 5,19 10,22 28,16 12,-3 22,-7 22,-8 z m 6739,-71 c 9,-69 8,-47 7,-485 0,-217 -1,-487 0,-600 0,-113 -3,-218 -7,-235 -7,-33 -30,-59 -60,-69 -10,-3 -251,-8 -534,-11 -283,-3 -568,-7 -632,-10 -66,-3 -118,-2 -118,3 0,11 -118,13 -125,3 -2,-4 -19,-5 -37,-3 -31,5 -32,6 -8,12 15,3 25,13 25,24 0,10 10,26 23,36 12,10 22,24 22,32 0,10 3,9 10,-2 8,-13 15,-10 41,18 18,19 37,31 46,28 8,-3 11,-1 8,5 -9,14 15,41 32,34 8,-2 29,6 47,20 18,14 38,25 45,25 6,0 14,6 17,14 3,8 44,41 91,72 46,32 94,71 105,86 15,22 25,27 41,22 18,-6 20,-4 10,7 -11,14 0,33 22,35 32,4 56,19 61,41 4,14 12,22 19,19 7,-2 25,13 41,33 15,21 41,43 56,50 15,7 28,19 28,26 0,8 13,22 30,31 23,14 27,21 18,32 -9,11 -9,13 3,11 21,-4 59,11 60,24 1,7 1,18 0,25 -1,6 7,12 19,12 11,0 20,4 20,9 0,15 75,91 89,91 8,0 10,7 6,20 -4,13 -2,20 7,20 8,0 21,9 31,20 10,12 23,17 34,13 15,-5 16,-3 6,8 -19,20 -15,32 8,26 19,-5 21,-3 16,28 -4,25 -2,33 8,29 12,-5 125,141 125,163 0,4 20,29 43,55 41,44 58,72 71,111 7,24 36,33 47,16 7,-11 9,-9 9,8 0,12 -8,27 -17,33 -15,9 -13,10 10,5 17,-3 27,-1 27,6 0,15 33,40 42,31 3,-4 9,-29 12,-57 z"
       id="path1"
       style="stroke-width:8.33554154;stroke-dasharray:none" />
    <path
       d="m 5008,9005 c -4,-5 -72,-12 -150,-16 -195,-12 -260,-18 -283,-29 -11,-5 -42,-11 -70,-14 -93,-10 -140,-18 -149,-27 -6,-5 -27,-9 -47,-9 -21,0 -41,-4 -44,-10 -3,-5 -24,-10 -46,-10 -21,0 -39,-4 -39,-10 0,-5 -13,-10 -29,-10 -17,0 -33,-4 -36,-10 -3,-5 -22,-10 -41,-10 -19,0 -34,-4 -34,-10 0,-5 -13,-10 -29,-10 -17,0 -33,-4 -36,-10 -3,-5 -17,-10 -31,-10 -13,0 -24,-4 -24,-10 0,-5 -11,-10 -24,-10 -14,0 -28,-4 -31,-10 -3,-5 -17,-10 -31,-10 -13,0 -24,-4 -24,-10 0,-5 -11,-10 -24,-10 -14,0 -28,-4 -31,-10 -3,-5 -15,-10 -26,-10 -10,0 -19,-4 -19,-10 0,-5 -11,-10 -25,-10 -14,0 -25,-4 -25,-10 0,-5 -9,-10 -20,-10 -11,0 -20,-4 -20,-10 0,-5 -9,-10 -20,-10 -11,0 -20,-4 -20,-10 0,-5 -9,-10 -20,-10 -11,0 -20,-4 -20,-10 0,-5 -6,-10 -13,-10 -18,0 -67,-24 -67,-32 0,-5 -7,-8 -15,-8 -8,0 -15,-4 -15,-10 0,-5 -9,-10 -20,-10 -11,0 -20,-4 -20,-8 0,-5 -16,-14 -35,-22 -19,-8 -35,-17 -35,-22 0,-4 -7,-8 -15,-8 -8,0 -15,-4 -15,-10 0,-5 -6,-10 -13,-10 -7,0 -23,-9 -35,-20 -12,-11 -24,-20 -27,-20 -10,0 -100,-63 -103,-72 -2,-4 -8,-8 -14,-8 -10,0 -27,-13 -109,-78 -23,-18 -49,-36 -58,-41 -13,-8 -13,-12 -4,-22 10,-10 22,-6 60,21 27,19 53,41 60,50 10,13 227,15 2061,15 2002,0 2050,0 2071,-19 12,-11 21,-25 21,-32 0,-8 6,-11 15,-8 8,4 17,-1 21,-10 3,-9 10,-13 15,-10 5,3 20,-3 34,-14 52,-41 31,-43 -591,-37 -324,2 -1133,4 -1799,3 -665,-2 -1383,-2 -1595,-3 h -385 l 3,23 c 2,12 0,22 -3,22 -32,0 -447,-403 -576,-560 -70,-85 -166,-212 -220,-292 -23,-34 -46,-64 -51,-66 -4,-2 -8,-8 -8,-14 0,-5 -13,-29 -30,-53 -16,-24 -30,-48 -30,-52 0,-5 -8,-18 -18,-29 -9,-10 -24,-32 -32,-49 -8,-16 -26,-48 -40,-70 -25,-38 -164,-317 -180,-360 -4,-11 -17,-40 -29,-63 -11,-24 -21,-52 -21,-63 0,-10 -4,-19 -10,-19 -5,0 -10,-11 -10,-24 0,-14 -4,-28 -10,-31 -5,-3 -10,-17 -10,-30 0,-13 -5,-25 -11,-27 -7,-2 -7,-23 0,-68 15,-88 15,-2354 1,-2380 -7,-13 -7,-21 0,-25 5,-3 10,-17 10,-30 0,-13 5,-27 10,-30 6,-3 10,-15 10,-25 0,-11 9,-35 20,-55 11,-20 20,-44 20,-55 0,-11 5,-20 10,-20 6,0 10,-9 10,-19 0,-11 5,-23 10,-26 6,-3 10,-17 10,-31 0,-13 5,-24 10,-24 6,0 10,-9 10,-20 0,-11 5,-20 10,-20 6,0 10,-6 10,-13 0,-18 24,-67 33,-67 4,0 7,-6 7,-14 0,-12 59,-135 70,-146 10,-10 41,-65 47,-83 3,-9 9,-17 14,-17 5,0 9,-6 9,-13 0,-7 9,-23 20,-35 11,-12 20,-24 20,-27 0,-3 18,-33 40,-65 22,-32 40,-63 40,-67 0,-5 9,-15 20,-23 11,-8 20,-20 20,-27 0,-7 5,-13 10,-13 6,0 10,-7 10,-15 0,-8 4,-15 8,-15 4,0 15,-12 24,-27 9,-16 26,-39 38,-53 12,-14 34,-41 48,-60 15,-19 38,-47 52,-61 14,-14 59,-63 100,-109 83,-94 123,-134 172,-175 18,-15 58,-50 88,-79 30,-28 71,-62 90,-76 19,-14 48,-37 64,-52 27,-26 35,-28 107,-28 43,0 81,5 84,10 3,6 17,10 30,10 13,0 27,5 30,10 3,6 15,10 26,10 10,0 19,5 19,10 0,6 5,10 10,10 6,0 24,12 42,28 82,71 127,129 166,214 9,21 20,38 24,38 5,0 8,11 8,25 0,14 5,25 10,25 6,0 10,9 10,19 0,11 5,23 10,26 6,3 10,15 10,26 0,19 4,28 28,76 7,13 12,34 12,48 0,14 5,25 10,25 6,0 10,13 10,29 0,17 5,33 10,36 6,3 10,17 10,30 0,13 4,27 10,30 5,3 10,15 10,26 0,10 4,27 9,37 5,9 14,31 21,47 7,17 16,38 21,47 5,10 9,25 9,33 0,8 5,15 10,15 6,0 10,11 10,25 0,14 5,25 10,25 6,0 10,9 10,20 0,11 5,20 10,20 6,0 10,9 10,20 0,11 5,20 10,20 6,0 10,7 10,15 0,8 5,15 10,15 6,0 10,9 10,20 0,11 5,20 10,20 6,0 10,5 10,10 0,6 23,44 50,85 28,41 50,79 50,85 0,5 5,10 10,10 6,0 10,6 10,14 0,8 4,16 8,18 4,1 20,28 35,58 15,30 33,66 41,80 21,37 56,117 89,200 5,14 13,33 18,42 5,10 9,25 9,33 0,8 5,15 10,15 6,0 10,9 10,20 0,11 4,28 9,38 10,19 30,66 41,97 4,11 18,43 30,70 12,28 26,59 30,70 4,11 21,49 39,84 17,35 31,70 31,77 0,8 5,14 10,14 6,0 10,7 10,15 0,8 9,30 20,50 11,20 20,42 20,50 0,8 3,15 8,15 8,0 32,49 32,67 0,7 5,13 10,13 6,0 10,9 10,20 0,11 5,20 10,20 6,0 10,9 10,20 0,11 3,20 8,20 4,0 13,15 20,33 7,17 18,40 23,50 5,9 14,26 19,37 6,11 15,29 20,40 6,11 10,27 10,35 0,8 5,15 10,15 6,0 10,13 10,29 0,17 5,33 10,36 6,3 10,24 10,45 0,21 5,42 10,45 6,3 10,24 10,45 0,21 5,42 10,45 6,3 10,25 10,49 0,23 4,46 9,51 15,16 24,131 24,300 -1,162 -8,242 -24,259 -5,6 -9,27 -9,47 0,21 -4,41 -10,44 -5,3 -10,21 -10,40 0,19 -4,37 -10,40 -5,3 -10,21 -10,40 0,19 -4,37 -10,40 -5,3 -10,19 -10,35 0,16 -4,32 -10,35 -5,3 -10,21 -10,40 0,19 -4,37 -10,40 -5,3 -10,19 -10,35 0,16 -4,32 -10,35 -5,3 -10,14 -10,23 0,29 -50,89 -94,112 -39,20 -53,21 -142,16 -55,-3 -142,-10 -194,-16 -289,-29 -364,-34 -560,-34 -230,1 -407,11 -416,25 -3,5 -31,9 -63,9 -31,0 -62,5 -68,11 -8,8 -99,11 -307,10 -188,-1 -297,3 -301,9 -3,5 -21,10 -40,10 -19,0 -37,5 -40,10 -3,6 -19,10 -35,10 -16,0 -32,5 -35,10 -3,6 -13,10 -21,10 -21,0 -64,41 -64,63 0,10 6,25 14,32 22,22 85,55 106,55 10,0 22,5 25,10 3,6 19,10 35,10 16,0 32,5 35,10 3,6 23,10 44,10 20,0 42,5 49,12 8,8 105,11 358,9 224,-1 350,2 358,8 8,7 156,12 397,15 450,5 509,9 509,37 0,13 -7,19 -24,19 -14,0 -28,5 -31,10 -4,6 -10,8 -15,5 -9,-5 -17,-2 -67,23 -13,7 -32,12 -42,12 -11,0 -23,5 -26,10 -3,6 -15,10 -26,10 -10,0 -19,5 -19,10 0,6 -11,10 -24,10 -14,0 -28,5 -31,10 -3,6 -17,10 -31,10 -13,0 -24,5 -24,10 0,6 -13,10 -30,10 -16,0 -30,5 -30,10 0,6 -11,10 -24,10 -14,0 -28,5 -31,10 -3,6 -17,10 -31,10 -13,0 -24,5 -24,10 0,6 -11,10 -24,10 -14,0 -28,5 -31,10 -3,6 -15,10 -26,10 -10,0 -19,5 -19,10 0,6 -9,10 -19,10 -11,0 -23,5 -26,10 -3,6 -15,10 -26,10 -10,0 -19,5 -19,10 0,6 -6,10 -14,10 -16,0 -199,93 -216,110 -3,3 -18,11 -35,19 -16,7 -38,17 -47,22 -10,5 -27,9 -38,9 -11,0 -20,5 -20,10 0,6 -20,10 -44,10 -25,0 -48,5 -51,10 -3,6 -26,10 -51,10 -24,0 -44,5 -44,10 0,6 -13,10 -29,10 -17,0 -33,5 -36,10 -3,6 -15,10 -26,10 -20,0 -31,5 -124,54 -44,24 -98,72 -126,112 l -29,43 26,30 26,31 h 139 c 86,0 139,-4 139,-10 0,-5 18,-10 39,-10 22,0 43,-4 46,-10 3,-5 19,-10 36,-10 16,0 29,-4 29,-10 0,-5 11,-10 25,-10 14,0 25,-4 25,-10 0,-5 9,-10 20,-10 11,0 35,-9 55,-20 20,-11 44,-20 55,-20 11,0 20,-4 20,-10 0,-5 11,-10 24,-10 14,0 28,-4 31,-10 3,-5 21,-10 40,-10 19,0 37,-4 40,-10 3,-5 21,-10 40,-10 19,0 37,-4 40,-10 3,-5 24,-10 45,-10 21,0 42,-4 45,-10 3,-5 22,-10 41,-10 19,0 34,-4 34,-10 0,-5 13,-10 29,-10 17,0 33,-4 36,-10 3,-5 17,-10 30,-10 13,0 27,-4 30,-10 3,-5 15,-10 26,-10 10,0 27,-4 37,-9 17,-9 51,-23 95,-40 37,-14 81,-33 99,-42 10,-5 27,-9 38,-9 11,0 20,-4 20,-10 0,-5 9,-10 20,-10 11,0 29,-4 40,-10 11,-5 29,-14 40,-20 11,-5 29,-10 40,-10 11,0 20,-4 20,-10 0,-5 11,-10 25,-10 14,0 25,-4 25,-10 0,-5 9,-10 20,-10 11,0 28,-4 38,-9 9,-5 31,-14 47,-21 17,-7 38,-16 47,-21 10,-5 26,-9 36,-9 10,0 22,-3 26,-7 12,-12 80,-33 108,-33 15,0 30,-4 33,-10 3,-5 21,-10 39,-10 17,0 36,-4 41,-9 6,-5 28,-11 50,-14 70,-10 110,-19 122,-29 20,-16 137,-14 169,2 51,26 80,69 90,130 9,58 -10,110 -78,212 -32,48 -58,94 -58,103 0,8 -4,15 -9,15 -13,0 -22,70 -27,218 -4,89 -2,132 5,132 6,0 11,16 11,35 0,19 5,35 10,35 6,0 10,6 10,13 0,29 32,76 87,129 53,50 75,63 156,97 15,6 70,11 122,11 52,0 107,-5 122,-11 81,-33 102,-46 150,-92 29,-27 53,-54 53,-59 0,-6 8,-22 18,-36 17,-25 31,-66 48,-137 15,-65 3,-288 -17,-310 -5,-5 -9,-16 -9,-25 0,-20 -27,-77 -40,-85 -11,-7 -65,-86 -85,-125 -9,-18 -15,-57 -15,-101 0,-72 0,-72 44,-114 29,-28 55,-44 80,-48 44,-7 134,2 142,14 3,5 18,9 34,9 16,0 32,5 35,10 3,6 26,10 50,10 24,0 47,5 50,10 3,6 21,10 40,10 19,0 37,5 40,10 3,6 21,10 40,10 19,0 37,5 40,10 3,6 17,10 31,10 13,0 24,5 24,10 0,6 11,10 24,10 14,0 28,5 31,10 3,6 17,10 31,10 13,0 24,5 24,10 0,6 11,10 24,10 14,0 28,5 31,10 3,6 17,10 31,10 13,0 24,5 24,10 0,6 11,10 25,10 14,0 25,5 25,10 0,6 9,10 20,10 11,0 28,4 38,9 18,9 58,26 102,44 14,5 33,13 42,18 10,5 27,9 37,9 11,0 23,5 26,10 3,6 15,10 26,10 10,0 19,5 19,10 0,6 9,10 20,10 11,0 29,5 40,10 11,6 29,15 40,20 11,6 29,10 40,10 11,0 20,5 20,10 0,6 13,10 29,10 17,0 33,5 36,10 3,6 19,10 35,10 16,0 32,5 35,10 3,6 19,10 35,10 16,0 31,4 34,9 3,5 23,11 43,14 21,3 61,11 88,17 28,6 62,13 78,17 15,3 30,9 33,14 3,5 18,9 35,9 16,0 29,5 29,10 0,6 11,10 25,10 14,0 25,5 25,10 0,6 7,10 15,10 8,0 23,4 33,9 9,5 31,14 47,21 17,7 38,16 47,21 10,5 29,9 42,9 14,0 27,4 30,9 9,13 77,22 214,27 113,5 125,4 152,-16 48,-34 41,-67 -28,-131 -58,-53 -131,-99 -158,-99 -8,0 -14,-4 -14,-10 0,-5 -11,-10 -24,-10 -14,0 -28,-4 -31,-10 -3,-5 -19,-10 -35,-10 -16,0 -32,-4 -35,-10 -3,-5 -24,-10 -45,-10 -21,0 -42,-4 -45,-10 -3,-5 -26,-10 -50,-10 -24,0 -47,-4 -50,-10 -3,-5 -17,-10 -30,-10 -13,0 -27,-4 -30,-10 -3,-5 -15,-10 -25,-10 -10,0 -20,-3 -22,-7 -1,-5 -32,-23 -68,-42 -36,-18 -98,-51 -139,-72 -41,-22 -80,-39 -87,-39 -8,0 -14,-4 -14,-10 0,-5 -7,-10 -15,-10 -8,0 -23,-4 -33,-9 -9,-5 -30,-14 -47,-21 -16,-7 -38,-16 -47,-21 -10,-5 -27,-9 -38,-9 -11,0 -20,-4 -20,-10 0,-5 -11,-10 -24,-10 -14,0 -28,-4 -31,-10 -3,-5 -17,-10 -30,-10 -13,0 -27,-4 -30,-10 -3,-5 -15,-10 -26,-10 -10,0 -27,-4 -37,-9 -16,-8 -36,-17 -97,-41 -14,-5 -35,-14 -47,-19 -27,-11 -69,-24 -83,-26 -5,-1 -17,-4 -25,-7 -8,-4 -24,-8 -35,-10 -11,-2 -21,-11 -23,-20 -2,-13 8,-17 55,-23 74,-8 753,-25 1217,-30 239,-2 362,-7 369,-14 6,-6 26,-11 43,-11 18,0 36,-4 39,-10 3,-5 22,-10 41,-10 19,0 34,-4 34,-10 0,-5 14,-10 30,-10 17,0 30,-4 30,-10 0,-5 8,-10 18,-10 23,0 72,-43 72,-64 0,-21 -44,-66 -64,-66 -8,0 -18,-4 -21,-10 -3,-5 -19,-10 -35,-10 -16,0 -32,-4 -35,-10 -3,-5 -21,-10 -40,-10 -19,0 -37,-5 -40,-10 -4,-7 -112,-10 -300,-9 -194,1 -299,-2 -307,-9 -7,-5 -40,-13 -73,-16 -33,-3 -107,-11 -165,-17 -135,-16 -499,-16 -660,-1 -448,44 -486,47 -533,32 -23,-8 -50,-21 -61,-29 -26,-22 -86,-156 -86,-192 0,-10 -4,-27 -9,-37 -15,-31 -31,-88 -31,-115 0,-14 -4,-28 -9,-31 -5,-3 -11,-20 -14,-38 -3,-18 -10,-51 -16,-73 -28,-110 -33,-136 -43,-215 -17,-131 -8,-423 13,-436 5,-3 9,-24 9,-48 0,-23 4,-46 9,-51 8,-9 11,-24 27,-135 3,-25 10,-49 15,-55 5,-5 9,-21 9,-36 0,-15 5,-31 10,-34 6,-3 10,-15 10,-26 0,-10 5,-19 10,-19 6,0 10,-9 10,-19 0,-11 5,-23 10,-26 6,-3 10,-15 10,-26 0,-10 5,-19 10,-19 6,0 10,-6 10,-12 0,-10 100,-221 151,-320 5,-10 9,-25 9,-33 0,-8 5,-15 10,-15 6,0 10,-6 10,-14 0,-8 10,-34 21,-58 12,-23 25,-52 29,-63 4,-11 18,-42 30,-70 23,-52 37,-85 50,-120 4,-11 12,-32 19,-47 6,-16 16,-39 21,-53 24,-61 33,-81 41,-97 5,-10 9,-25 9,-33 0,-8 5,-15 10,-15 6,0 10,-7 10,-15 0,-8 4,-23 9,-33 5,-9 28,-57 52,-107 24,-49 55,-108 69,-130 14,-22 32,-53 40,-70 8,-16 23,-39 33,-49 9,-11 17,-26 17,-33 0,-7 4,-13 8,-13 5,0 20,-21 33,-47 13,-27 26,-50 29,-53 11,-11 70,-134 70,-146 0,-8 5,-14 10,-14 6,0 10,-9 10,-20 0,-11 5,-20 10,-20 6,0 10,-11 10,-25 0,-14 5,-25 10,-25 6,0 10,-11 10,-25 0,-14 5,-25 10,-25 6,0 10,-11 10,-24 0,-14 5,-28 10,-31 6,-3 10,-17 10,-31 0,-13 5,-24 10,-24 6,0 10,-13 10,-30 0,-16 5,-30 10,-30 6,0 10,-13 10,-30 0,-16 5,-30 10,-30 6,0 10,-11 10,-24 0,-14 5,-28 10,-31 6,-3 10,-15 10,-26 0,-19 4,-28 28,-76 7,-13 12,-30 12,-38 0,-8 5,-15 10,-15 6,0 10,-9 10,-20 0,-11 5,-20 10,-20 6,0 10,-9 10,-20 0,-11 5,-20 10,-20 6,0 10,-9 10,-20 0,-11 5,-20 10,-20 6,0 10,-6 10,-13 0,-7 8,-22 18,-33 9,-10 33,-40 52,-65 35,-47 118,-109 145,-109 8,0 15,-4 15,-10 0,-5 11,-10 25,-10 14,0 25,-4 25,-10 0,-6 40,-10 100,-10 102,0 107,2 155,47 8,7 16,13 20,13 3,0 16,10 29,22 48,48 105,98 111,98 7,0 203,197 239,240 15,19 47,55 70,80 22,25 57,66 76,90 19,25 38,47 42,48 4,2 8,9 8,15 0,7 12,26 28,42 15,17 33,42 41,58 8,15 18,27 23,27 4,0 8,6 8,13 0,7 8,22 18,33 9,10 23,31 31,47 8,15 18,27 23,27 4,0 8,7 8,15 0,8 5,15 10,15 6,0 10,6 10,14 0,8 3,16 8,18 4,2 18,24 31,51 13,26 28,47 33,47 4,0 8,9 8,20 0,11 5,20 10,20 6,0 10,9 10,19 0,11 3,21 8,23 10,4 132,250 132,266 0,6 5,12 10,12 6,0 10,9 10,20 0,11 9,35 20,55 11,20 20,42 20,50 0,9 5,24 10,35 6,11 15,29 20,40 6,11 10,28 10,38 0,10 5,23 11,29 8,8 8,17 0,31 -13,24 -15,2249 -2,2392 5,55 5,99 0,104 -5,6 -9,18 -9,28 0,10 -4,26 -9,36 -5,9 -13,28 -18,42 -18,44 -35,84 -44,102 -5,10 -9,25 -9,33 0,8 -4,15 -10,15 -5,0 -10,6 -10,13 0,12 -119,257 -130,267 -9,9 -40,64 -58,103 -9,20 -20,37 -24,37 -5,0 -8,7 -8,15 0,8 -3,15 -8,15 -4,0 -14,15 -22,33 -7,17 -22,41 -32,51 -10,11 -18,26 -18,33 0,7 -4,13 -8,13 -5,0 -15,12 -23,27 -8,15 -19,35 -26,43 -41,52 -83,111 -83,116 0,3 -13,19 -30,37 -16,18 -30,36 -30,40 0,9 -68,92 -169,207 -96,110 -293,304 -394,390 -49,41 -110,94 -137,118 -26,23 -52,42 -59,42 -6,0 -11,3 -11,8 0,6 -55,46 -118,87 -9,6 -25,18 -36,28 -11,9 -26,17 -33,17 -7,0 -13,4 -13,8 0,5 -20,19 -45,32 -25,13 -45,26 -45,30 0,3 -16,12 -35,20 -19,8 -35,16 -35,19 0,4 -15,12 -32,20 -18,8 -35,17 -38,20 -5,7 -208,107 -250,123 -14,6 -33,14 -42,19 -10,5 -25,9 -33,9 -8,0 -15,5 -15,10 0,6 -11,10 -24,10 -14,0 -28,5 -31,10 -3,6 -15,10 -26,10 -10,0 -19,5 -19,10 0,6 -13,10 -29,10 -17,0 -33,5 -36,10 -3,6 -17,10 -31,10 -13,0 -24,5 -24,10 0,6 -13,10 -29,10 -17,0 -33,5 -36,10 -3,6 -19,10 -35,10 -16,0 -32,5 -35,10 -3,6 -21,10 -40,10 -19,0 -37,5 -40,10 -3,6 -24,10 -46,10 -21,0 -39,4 -39,9 0,9 -28,14 -135,26 -27,3 -59,10 -70,15 -11,5 -49,12 -85,15 -296,26 -602,41 -612,30 z m 427,-112 c 11,-4 29,-6 40,-5 11,2 65,-5 120,-14 55,-9 115,-16 133,-15 17,0 32,-3 32,-9 0,-5 13,-7 30,-4 17,4 36,1 45,-6 8,-6 19,-9 24,-6 5,4 13,1 16,-5 4,-6 18,-8 30,-5 13,3 27,2 30,-4 3,-5 22,-10 42,-10 20,0 46,-9 60,-20 14,-11 29,-17 34,-14 5,3 33,-3 62,-14 28,-11 69,-22 90,-26 23,-4 37,-13 37,-21 0,-8 5,-15 10,-15 6,0 10,5 10,10 0,7 7,7 21,0 11,-7 27,-9 34,-6 9,3 12,0 8,-10 -4,-12 0,-14 22,-8 22,5 31,2 45,-16 10,-13 26,-24 36,-25 11,0 73,-28 139,-60 66,-33 125,-60 130,-60 6,0 13,-8 18,-19 6,-16 10,-16 24,-5 14,12 15,11 9,-9 -5,-16 -3,-22 7,-22 8,0 25,-8 38,-19 39,-31 13,-48 -84,-55 -161,-11 -1531,-17 -1566,-6 -19,5 -39,6 -45,1 -6,-5 -47,-6 -91,-2 -44,3 -109,4 -145,1 -60,-5 -1359,-4 -1370,1 -3,1 -23,3 -45,4 -45,3 -85,14 -85,24 0,3 14,14 30,23 17,9 30,25 30,35 0,13 3,14 12,5 9,-9 16,-8 30,5 10,9 18,22 18,29 0,7 8,10 18,8 10,-3 29,7 46,25 17,17 38,31 48,31 10,0 57,19 105,42 49,23 96,42 106,40 9,-1 17,5 17,13 0,10 10,15 29,15 16,0 34,6 41,14 6,8 18,12 26,9 8,-3 20,-1 27,4 6,6 41,16 77,23 36,7 70,17 77,22 7,6 25,11 40,13 53,7 109,22 140,37 17,9 35,12 40,8 4,-5 33,-2 63,6 30,9 66,17 80,18 45,6 164,27 203,37 21,6 113,13 205,16 92,3 169,8 172,10 7,7 350,-7 375,-14 z M 4235,8100 c 420,-1 448,-3 479,-25 17,-13 17,-18 6,-45 -7,-16 -16,-30 -21,-30 -5,0 -9,-9 -9,-20 0,-11 -5,-20 -11,-20 -6,0 -9,-9 -6,-19 3,-11 -1,-22 -9,-25 -7,-3 -13,-13 -13,-23 1,-30 -7,-73 -14,-80 -4,-3 -7,-60 -7,-126 0,-115 12,-181 35,-200 6,-5 3,-7 -7,-3 -24,7 -22,-4 7,-44 29,-39 30,-44 10,-36 -13,4 -14,2 -5,-14 6,-11 14,-20 19,-20 10,0 67,-125 76,-168 14,-68 -62,-118 -143,-94 -20,6 -63,14 -94,17 -32,4 -58,11 -58,17 0,7 -5,7 -14,-1 -10,-9 -16,-8 -26,4 -7,8 -23,15 -36,15 -16,0 -24,6 -24,17 0,15 -2,14 -14,-3 -14,-18 -15,-18 -21,-1 -4,9 -12,17 -19,16 -6,-1 -18,0 -26,3 -8,3 -58,20 -110,38 -52,18 -132,45 -178,61 -46,15 -100,37 -119,49 -25,15 -45,19 -62,15 -14,-4 -23,-3 -18,1 10,10 -57,42 -105,50 -21,4 -38,12 -38,19 0,9 -78,31 -141,38 -8,1 -23,10 -33,19 -9,9 -23,15 -30,12 -8,-3 -17,0 -21,6 -5,8 -11,8 -21,-1 -11,-9 -15,-8 -20,5 -5,13 -9,14 -20,5 -8,-7 -14,-7 -14,-1 0,15 -45,30 -159,53 -57,11 -117,27 -133,35 -16,8 -37,14 -46,12 -9,-2 -26,4 -36,14 -18,16 -40,22 -88,21 -10,0 -18,7 -18,15 0,9 -6,12 -16,8 -9,-4 -22,-2 -29,4 -19,16 -96,41 -140,46 -53,6 -115,33 -115,51 0,20 56,99 75,106 8,4 15,15 15,26 0,13 12,26 33,36 35,17 97,71 97,85 0,5 6,7 14,4 8,-3 21,5 30,18 9,12 35,33 59,45 42,22 43,22 487,18 245,-2 625,-5 845,-5 z m 3081,-25 c 37,-20 83,-51 103,-70 20,-18 62,-56 94,-85 46,-43 55,-56 45,-67 -10,-12 -7,-13 14,-8 22,6 27,2 42,-35 17,-44 10,-70 -20,-70 -7,0 -28,-7 -46,-14 -18,-8 -54,-18 -79,-21 -25,-3 -55,-14 -66,-24 -13,-13 -29,-17 -46,-14 -19,4 -27,1 -27,-9 0,-10 -11,-14 -35,-13 -21,0 -35,-4 -35,-11 0,-6 -18,-14 -41,-18 -22,-3 -66,-15 -97,-25 -31,-11 -102,-30 -157,-42 -55,-12 -105,-29 -111,-36 -6,-7 -32,-13 -58,-13 -41,0 -46,-3 -47,-22 0,-13 -3,-17 -6,-10 -7,17 -23,15 -71,-8 -22,-11 -47,-20 -55,-20 -19,0 -131,-42 -198,-75 -29,-14 -61,-23 -71,-19 -12,3 -18,0 -18,-9 0,-18 -27,-29 -51,-22 -12,4 -21,1 -25,-10 -4,-9 -13,-14 -22,-10 -8,3 -20,1 -27,-5 -6,-5 -63,-28 -125,-50 -62,-21 -117,-45 -121,-51 -4,-7 -14,-9 -23,-6 -8,3 -18,1 -22,-4 -3,-6 -17,-9 -31,-6 -15,3 -27,-1 -30,-9 -3,-8 -9,-11 -14,-8 -6,3 -15,1 -22,-4 -7,-5 -19,-10 -27,-10 -37,-2 -157,-24 -172,-33 -10,-5 -38,-9 -63,-9 -37,0 -51,5 -70,26 -42,45 -41,73 7,171 23,48 43,95 43,103 0,8 7,15 15,14 12,-1 15,10 15,45 -1,25 5,58 13,74 10,20 13,62 12,145 -2,159 -3,171 -19,181 -9,6 -10,11 -2,15 8,5 7,14 -4,29 -8,12 -15,31 -15,43 0,12 -5,24 -11,26 -6,2 -17,22 -25,43 -17,49 -6,64 57,75 24,5 300,9 613,9 313,1 571,2 572,4 1,1 113,4 248,6 l 246,3 z M 2353,7414 c 18,-9 34,-20 37,-23 10,-12 157,-82 191,-91 18,-5 59,-16 89,-25 30,-10 78,-22 105,-29 28,-6 56,-15 63,-19 6,-5 16,-6 21,-3 5,3 20,-3 34,-14 14,-11 31,-20 37,-20 7,0 35,-13 61,-30 27,-16 55,-27 62,-24 8,3 17,-2 20,-10 4,-9 13,-16 20,-16 8,0 22,-11 33,-25 13,-18 21,-21 31,-13 9,7 13,7 13,-1 0,-6 12,-14 27,-17 14,-4 46,-20 69,-36 23,-15 52,-28 63,-28 12,0 24,-7 27,-15 4,-8 13,-15 20,-15 24,0 29,-31 9,-46 -13,-10 -53,-14 -129,-14 -61,0 -145,-5 -186,-11 -41,-5 -221,-10 -400,-11 -200,0 -330,-4 -338,-11 -6,-5 -27,-7 -45,-4 -17,3 -26,3 -19,0 6,-2 12,-9 12,-14 0,-13 -34,-11 -47,2 -8,8 -13,8 -17,0 -4,-6 -2,-11 3,-11 6,0 11,-3 11,-8 0,-4 -17,-8 -37,-8 -48,0 -100,-25 -152,-73 -31,-28 -39,-42 -34,-59 3,-12 1,-22 -4,-22 -14,0 -3,-57 13,-71 10,-8 11,-15 4,-24 -15,-18 55,-61 138,-87 37,-11 73,-25 79,-30 8,-6 126,-11 305,-12 175,-2 301,-7 313,-13 11,-5 46,-9 78,-9 32,1 57,-3 57,-9 0,-6 29,-10 67,-11 38,0 100,-5 138,-10 146,-19 715,-2 785,23 31,11 195,11 209,-1 11,-8 15,-8 18,2 5,14 43,17 43,3 0,-5 -6,-12 -12,-14 -7,-3 -1,-6 13,-6 34,-1 99,-77 99,-116 0,-8 4,-15 9,-15 5,0 11,-19 14,-42 7,-60 24,-134 36,-155 6,-10 15,-40 21,-68 6,-27 16,-70 21,-95 53,-235 48,-381 -25,-720 -7,-36 -12,-70 -9,-76 2,-6 -3,-14 -13,-18 -13,-5 -14,-9 -3,-22 10,-13 9,-16 -8,-20 -14,-4 -19,-12 -16,-24 3,-11 -5,-33 -17,-50 -12,-17 -19,-37 -16,-45 3,-8 0,-12 -7,-10 -11,4 -80,-123 -82,-150 -2,-18 -24,-63 -34,-70 -6,-3 -11,-15 -11,-26 0,-10 -4,-19 -9,-19 -12,0 -101,-184 -101,-210 0,-11 -6,-20 -14,-20 -21,0 -30,-19 -17,-34 9,-11 8,-18 -4,-29 -8,-9 -15,-25 -15,-38 0,-19 -2,-20 -16,-8 -15,12 -16,11 -10,-9 4,-13 3,-28 -2,-35 -5,-7 -30,-68 -57,-137 -26,-69 -51,-130 -57,-137 -5,-7 -7,-21 -3,-33 5,-14 2,-20 -9,-20 -9,0 -16,-9 -16,-21 0,-11 -11,-40 -25,-65 -14,-25 -25,-49 -25,-54 0,-5 -14,-33 -31,-62 -18,-29 -32,-65 -32,-80 0,-16 -4,-28 -9,-28 -15,0 -49,-41 -42,-51 3,-6 -3,-13 -14,-16 -14,-3 -18,-11 -15,-24 3,-10 0,-19 -6,-19 -6,0 -11,-6 -11,-14 0,-7 -6,-18 -13,-24 -7,-6 -28,-42 -47,-79 -19,-37 -39,-71 -44,-74 -5,-4 -6,-14 -3,-22 4,-11 0,-13 -16,-10 -17,5 -20,3 -10,-7 11,-12 2,-43 -18,-60 -6,-5 -18,-38 -60,-159 -11,-30 -19,-64 -19,-76 0,-13 -7,-26 -16,-29 -13,-5 -14,-9 -4,-21 9,-10 9,-15 1,-15 -6,0 -11,-6 -11,-14 0,-8 -6,-27 -14,-43 -34,-68 -50,-123 -35,-123 5,0 9,-4 9,-10 0,-5 -7,-10 -15,-10 -8,0 -17,-12 -21,-27 -4,-16 -13,-39 -22,-52 -8,-14 -23,-47 -33,-75 -13,-38 -23,-51 -37,-50 -15,0 -19,-6 -18,-35 1,-26 -4,-38 -19,-45 -41,-22 -95,-69 -95,-83 0,-9 -6,-13 -14,-10 -8,3 -21,-2 -30,-12 -11,-12 -30,-17 -61,-17 -36,1 -45,-3 -49,-18 -5,-19 -6,-19 -25,-2 -11,10 -24,15 -30,12 -13,-9 -51,15 -51,31 0,7 -9,13 -20,13 -11,0 -30,9 -42,19 -13,10 -48,39 -78,64 -30,24 -54,50 -52,57 2,8 -4,11 -16,8 -15,-4 -18,-1 -15,13 3,11 0,19 -6,19 -21,0 -99,72 -106,97 -4,16 -11,23 -20,19 -8,-3 -15,-2 -15,3 0,12 -96,111 -108,111 -6,0 -9,6 -6,14 3,7 -2,16 -10,19 -10,4 -13,13 -9,24 6,16 5,16 -10,4 -14,-11 -18,-9 -29,15 -13,31 -68,107 -80,112 -5,2 -8,13 -8,24 0,11 -8,22 -17,25 -21,6 -83,87 -83,108 0,8 -4,15 -8,15 -5,0 -17,18 -27,40 -10,22 -24,45 -31,51 -7,6 -10,18 -7,27 6,15 5,15 -10,3 -17,-14 -21,-10 -18,22 2,10 -5,17 -14,17 -9,0 -13,5 -10,11 4,5 0,18 -8,27 -8,9 -31,51 -51,92 -19,41 -36,71 -36,65 -1,-5 -8,10 -16,35 -9,25 -25,54 -37,64 -15,13 -18,20 -9,23 17,6 15,23 -2,23 -9,0 -12,7 -9,20 3,11 1,20 -4,20 -9,0 -34,52 -48,98 -3,12 -14,22 -23,22 -14,0 -14,2 -3,9 12,8 11,17 -7,55 -12,25 -22,57 -22,70 0,13 -7,29 -15,36 -11,9 -12,16 -2,31 9,14 9,26 0,50 -9,22 -9,37 -2,51 6,11 7,24 2,31 -5,7 -6,69 -2,140 5,97 3,1625 -3,1882 -2,99 8,225 18,225 5,0 10,17 10,37 0,20 6,39 12,41 10,3 10,7 1,19 -8,9 -9,17 -3,21 6,4 20,32 33,62 13,30 39,86 57,124 19,37 32,72 29,76 -3,4 1,10 8,13 7,3 19,23 26,46 6,23 16,41 21,41 6,0 10,10 10,21 0,12 20,52 45,89 29,43 43,74 39,84 -5,14 -2,16 22,10 24,-5 27,-4 17,7 -19,19 -16,43 8,57 12,8 18,19 15,28 -3,8 1,14 9,14 8,0 15,7 15,15 0,9 7,18 15,21 8,4 15,12 15,20 0,8 7,14 16,14 12,0 15,6 10,26 -6,22 -4,25 14,19 20,-6 28,9 10,20 -19,12 -10,25 14,19 20,-5 24,-3 20,13 -6,23 30,63 57,63 11,0 22,7 25,15 8,19 27,19 67,-1 z m 5580,2 c 33,-16 77,-50 77,-61 0,-3 12,-17 27,-31 21,-19 24,-27 14,-33 -9,-6 -5,-10 14,-15 20,-5 24,-10 16,-19 -7,-10 -6,-18 7,-29 29,-28 43,-47 60,-86 10,-21 23,-37 29,-35 7,3 15,-8 19,-24 3,-15 19,-49 35,-74 16,-25 29,-49 29,-53 0,-4 16,-32 36,-63 19,-30 33,-58 30,-61 -3,-3 2,-11 12,-18 14,-11 15,-15 3,-23 -11,-7 -9,-10 8,-16 25,-8 28,-25 4,-26 -17,0 -17,-1 0,-8 10,-3 34,-42 53,-86 20,-44 44,-96 53,-115 10,-19 17,-40 15,-45 -3,-6 4,-20 14,-30 10,-11 16,-28 14,-37 -2,-10 0,-18 5,-18 7,0 10,-61 12,-290 1,-41 -3,-190 -7,-330 -5,-140 -7,-448 -5,-685 8,-879 8,-1085 2,-1085 -3,0 -6,-12 -7,-27 -1,-35 -6,-66 -14,-78 -3,-6 -9,-25 -13,-43 -3,-17 -22,-70 -41,-117 -20,-50 -31,-91 -27,-102 6,-15 4,-16 -9,-5 -19,15 -31,3 -17,-18 15,-25 10,-32 -17,-26 -23,6 -25,4 -19,-14 4,-12 1,-27 -5,-35 -6,-8 -9,-19 -5,-25 3,-5 1,-10 -4,-10 -6,0 -11,-11 -11,-24 0,-14 -4,-27 -10,-31 -5,-3 -21,-28 -36,-55 -15,-28 -31,-50 -36,-50 -4,0 -8,-8 -8,-19 0,-10 -9,-21 -20,-24 -20,-5 -28,-27 -10,-27 6,0 10,-4 10,-10 0,-5 -5,-10 -11,-10 -16,0 -39,-26 -39,-45 0,-9 -12,-27 -26,-42 -14,-14 -23,-28 -20,-30 3,-3 -8,-23 -24,-43 -17,-21 -30,-42 -30,-47 0,-6 -11,-22 -24,-36 -13,-14 -48,-61 -77,-103 -29,-42 -55,-71 -57,-65 -7,22 -22,10 -16,-13 4,-19 1,-26 -15,-31 -12,-3 -21,-12 -21,-20 0,-18 -55,-72 -81,-80 -20,-7 -20,-7 -2,-21 17,-12 17,-13 1,-14 -11,0 -18,-8 -18,-20 0,-11 -5,-20 -11,-20 -6,0 -9,7 -5,15 7,19 -5,19 -30,0 -11,-8 -14,-15 -6,-15 16,0 16,-30 -1,-30 -16,0 -72,-58 -81,-84 -5,-15 -9,-17 -18,-8 -22,22 -39,14 -32,-15 6,-21 4,-25 -9,-20 -11,4 -14,2 -10,-9 3,-8 -1,-14 -10,-14 -19,0 -74,-54 -69,-68 2,-6 -11,-13 -27,-17 -17,-4 -31,-13 -31,-21 0,-16 -26,-19 -35,-3 -5,7 -14,3 -26,-10 -27,-29 -109,-29 -156,0 -19,12 -49,23 -66,25 -21,3 -40,15 -57,37 -13,17 -37,44 -52,59 -16,14 -28,33 -28,41 0,9 -13,28 -28,44 -27,27 -82,132 -82,157 0,7 -13,30 -29,52 -22,29 -28,46 -24,67 4,19 1,32 -8,37 -8,5 -12,23 -11,43 2,21 -4,39 -13,47 -8,7 -18,30 -21,51 -4,22 -10,39 -14,39 -4,0 -13,20 -19,44 -6,25 -17,51 -25,59 -9,8 -13,29 -12,50 3,28 0,34 -12,29 -11,-4 -14,-1 -9,12 4,10 1,19 -8,22 -11,4 -13,14 -8,33 5,23 4,24 -9,13 -13,-10 -16,-9 -21,8 -3,11 -1,20 4,20 5,0 9,5 9,10 0,6 -6,10 -13,10 -7,0 -27,28 -45,63 -51,96 -59,110 -77,120 -12,6 -15,17 -11,35 5,18 4,22 -3,13 -13,-20 -29,-5 -24,24 4,17 0,27 -11,31 -9,3 -16,12 -16,19 0,18 -50,105 -61,105 -5,0 -9,9 -9,20 0,12 -7,32 -16,45 -10,15 -13,32 -9,46 6,18 4,21 -13,17 -15,-4 -18,-1 -15,13 3,10 -2,28 -10,40 -9,11 -13,28 -10,35 4,10 0,12 -10,8 -11,-4 -16,0 -15,13 1,23 -40,131 -53,138 -5,4 -9,17 -9,31 0,13 -9,33 -21,45 -13,13 -18,27 -14,40 4,13 2,19 -8,19 -10,0 -13,7 -11,18 3,9 -15,61 -40,115 -26,54 -46,104 -46,112 0,7 -7,16 -16,19 -9,4 -14,13 -10,21 3,8 1,15 -5,15 -7,0 -9,11 -5,28 3,15 3,21 0,15 -9,-22 -36,-16 -29,6 6,19 -15,67 -83,196 -18,33 -32,67 -32,76 0,9 -7,19 -15,23 -8,3 -15,14 -15,24 0,10 -4,22 -9,28 -25,25 -94,271 -107,379 -1,17 -6,50 -10,75 -11,82 -14,343 -3,356 6,7 9,21 8,31 -3,23 10,102 21,128 5,11 18,63 30,115 20,87 78,278 87,290 2,2 9,-2 14,-10 8,-12 10,-10 6,9 -6,26 35,70 66,71 9,0 17,5 17,11 0,13 179,6 272,-11 29,-5 98,-11 153,-14 55,-3 161,-10 235,-16 140,-10 409,1 460,20 30,11 136,21 242,22 47,1 79,6 82,13 3,8 65,10 215,8 128,-2 229,1 254,8 23,6 69,15 102,20 69,10 185,63 185,84 0,8 7,18 16,23 12,6 13,11 5,16 -8,5 -7,12 4,22 14,15 12,52 -4,79 -3,6 -4,18 -3,27 2,10 -16,31 -43,52 -37,28 -53,34 -76,29 -18,-3 -29,-1 -29,6 0,6 7,11 15,11 8,0 15,5 15,10 0,13 -6,13 -31,0 -15,-8 -21,-7 -25,3 -4,11 -17,13 -50,9 -27,-3 -44,-1 -44,6 0,6 6,12 12,14 7,3 -16,4 -50,3 -35,-1 -65,2 -68,7 -3,5 -123,8 -267,7 -226,-2 -344,3 -625,25 -29,3 -60,10 -68,17 -11,9 -18,9 -26,1 -16,-16 -51,-15 -46,1 2,6 34,28 71,47 37,20 72,41 79,48 7,7 22,12 35,12 13,0 26,7 29,15 4,8 11,15 18,15 6,0 40,16 76,34 172,91 256,130 308,142 70,15 193,48 248,66 45,14 134,67 134,80 0,4 11,8 23,8 13,0 32,9 42,20 22,24 26,24 68,6 z M 7180,2330 c 0,-5 -7,-10 -15,-10 -8,0 -15,5 -15,10 0,6 7,10 15,10 8,0 15,-4 15,-10 z"
       id="path2"
       style="stroke-width:8.33554154;stroke-dasharray:none" />
    <path
       d="m 3196,2492 c -3,-6 -1,-14 5,-17 15,-10 25,3 12,16 -7,7 -13,7 -17,1 z"
       id="path3"
       style="stroke-width:8.33554154;stroke-dasharray:none" />
    <path
       d="m 2103,8182 -463,-2 v -619 c 0,-340 -3,-652 -6,-694 -4,-48 -3,-77 3,-77 11,0 53,80 53,101 0,8 9,25 20,39 11,14 20,30 20,37 0,15 43,97 53,101 4,2 7,10 7,18 0,8 3,14 8,14 4,0 13,15 21,33 8,17 27,51 43,74 15,23 28,44 28,48 0,4 14,26 30,50 17,24 30,48 30,53 0,6 4,12 8,14 5,2 23,26 42,53 51,77 199,273 211,281 6,3 24,25 40,47 43,60 287,315 347,362 27,22 55,48 61,57 10,16 6,17 -42,15 -28,-1 -260,-3 -514,-5 z m 253,-113 c 14,-15 14,-20 -6,-58 -11,-23 -27,-44 -35,-47 -8,-3 -17,-19 -20,-35 -4,-16 -10,-29 -15,-29 -16,0 -85,-75 -82,-89 2,-9 -3,-12 -17,-8 -14,3 -18,1 -14,-9 3,-8 -4,-25 -16,-37 -46,-48 -81,-90 -81,-98 0,-5 -25,-39 -55,-76 -30,-38 -55,-74 -55,-80 0,-7 -7,-13 -15,-13 -8,0 -16,-6 -17,-12 0,-7 -2,-17 -2,-23 -1,-5 -14,-23 -30,-40 -15,-16 -30,-42 -33,-57 -3,-15 -12,-28 -19,-28 -8,0 -11,-6 -8,-15 4,-10 0,-15 -14,-15 -12,0 -25,-7 -30,-17 -6,-10 -16,-14 -26,-10 -17,7 -22,37 -6,37 6,0 10,5 10,11 0,6 -6,9 -14,6 -10,-4 -15,11 -20,62 -6,63 -8,507 -2,571 1,17 3,45 4,63 2,30 7,35 40,45 58,18 73,19 324,18 205,-1 240,-3 254,-17 z"
       id="path4"
       style="stroke-width:8.33554154;stroke-dasharray:none" />
    <path
       d="m 7560,8180 c 0,-3 52,-54 116,-114 64,-60 139,-137 166,-170 28,-34 70,-82 94,-108 24,-26 44,-49 44,-53 0,-3 15,-23 34,-43 73,-80 286,-379 286,-402 0,-5 4,-10 8,-10 5,0 15,-12 23,-27 7,-16 25,-46 39,-68 14,-22 32,-53 40,-70 8,-16 22,-42 32,-57 10,-14 18,-33 18,-41 0,-9 3,-17 8,-19 10,-4 82,-155 82,-173 0,-9 7,-18 15,-21 8,-4 15,-16 15,-28 0,-16 2,-18 9,-7 6,9 6,22 0,33 -6,10 -10,291 -12,698 l -2,680 -508,2 c -279,2 -507,1 -507,-2 z m 880,-115 c 47,-28 52,-61 46,-295 -3,-107 -5,-257 -6,-332 0,-124 -2,-140 -20,-158 -24,-24 -45,-26 -36,-5 7,20 -23,33 -34,14 -5,-7 -13,-10 -17,-5 -4,4 1,14 11,21 18,14 17,16 -18,52 -21,21 -40,51 -43,66 -4,21 -10,27 -24,24 -11,-3 -16,0 -12,8 4,13 -103,166 -136,192 -8,7 -25,32 -36,55 -12,24 -29,42 -37,42 -10,-1 -14,5 -11,17 6,21 -13,43 -44,53 -13,4 -24,19 -28,37 -5,24 -10,28 -20,19 -11,-9 -15,-4 -20,23 -5,23 -14,37 -26,40 -10,3 -19,13 -19,22 0,10 -6,15 -12,12 -18,-6 -60,80 -44,91 38,25 104,31 321,29 211,-2 233,-4 265,-22 z"
       id="path5"
       style="stroke-width:8.33554154;stroke-dasharray:none" />
    <path
       d="m 8590,6375 c 0,-14 5,-25 10,-25 6,0 10,11 10,25 0,14 -4,25 -10,25 -5,0 -10,-11 -10,-25 z"
       id="path6"
       style="stroke-width:8.33554154;stroke-dasharray:none" />
    <path
       d="m 1600,6340 c 0,-16 -4,-30 -10,-30 -5,0 -10,-9 -10,-20 0,-33 16,-23 28,19 15,47 15,61 2,61 -5,0 -10,-13 -10,-30 z"
       id="path7"
       style="stroke-width:8.33554154;stroke-dasharray:none" />
    <path
       d="m 8605,6330 c -8,-13 4,-50 16,-50 5,0 9,14 9,30 0,30 -13,40 -25,20 z"
       id="path8"
       style="stroke-width:8.33554154;stroke-dasharray:none" />
    <path
       d="m 8630,6247 c 0,-13 3,-27 8,-31 6,-7 22,-91 38,-211 3,-22 13,-46 22,-53 15,-11 17,-79 16,-768 -1,-548 2,-754 10,-751 6,2 11,17 12,33 0,16 4,43 9,59 4,17 9,46 11,65 1,19 8,85 15,145 17,149 17,751 0,905 -8,63 -14,131 -15,150 0,19 -5,41 -10,48 -4,8 -8,31 -8,53 1,22 -6,45 -14,54 -9,9 -14,30 -12,57 1,25 -3,43 -10,46 -7,2 -12,21 -12,43 0,21 -4,39 -10,39 -5,0 -10,15 -10,34 0,19 -4,38 -10,41 -5,3 -10,19 -10,36 0,16 -4,29 -10,29 -5,0 -10,-10 -10,-23 z"
       id="path9"
       style="stroke-width:8.33554154;stroke-dasharray:none" />
    <path
       d="m 1560,6216 c 0,-19 -4,-38 -10,-41 -5,-3 -10,-22 -10,-41 0,-19 -4,-34 -10,-34 -5,0 -10,-20 -10,-45 0,-25 -4,-45 -10,-45 -5,0 -10,-22 -10,-49 0,-31 -5,-53 -15,-61 -8,-7 -15,-24 -14,-39 1,-41 -18,-229 -25,-240 -28,-44 -24,-814 4,-906 5,-16 12,-76 16,-132 4,-68 11,-107 20,-114 8,-7 14,-30 14,-55 0,-24 5,-44 10,-44 6,0 10,-20 10,-45 0,-25 4,-45 9,-45 15,0 23,38 12,58 -5,10 -10,27 -10,38 0,10 -7,57 -16,104 -13,73 -15,178 -12,715 3,347 7,653 11,680 4,28 18,106 33,175 33,162 38,200 24,200 -6,0 -11,-15 -11,-34 z"
       id="path10"
       style="stroke-width:8.33554154;stroke-dasharray:none" />
    <path
       d="m 4487,4733 c -11,-10 -8,-81 3,-88 6,-4 10,13 10,44 0,52 -1,56 -13,44 z"
       id="path11"
       style="stroke-width:8.33554154;stroke-dasharray:none" />
    <path
       d="m 5715,4678 c -4,-10 -4,-26 0,-35 8,-17 8,-17 12,0 3,9 3,25 0,35 -4,16 -4,16 -12,0 z"
       id="path12"
       style="stroke-width:8.33554154;stroke-dasharray:none" />
    <path
       d="m 4460,4535 c 0,-30 5,-55 10,-55 6,0 10,25 10,55 0,30 -4,55 -10,55 -5,0 -10,-25 -10,-55 z"
       id="path13"
       style="stroke-width:8.33554154;stroke-dasharray:none" />
    <path
       d="m 5730,4470 c 0,-27 5,-50 10,-50 6,0 10,23 10,50 0,28 -4,50 -10,50 -5,0 -10,-22 -10,-50 z"
       id="path14"
       style="stroke-width:8.33554154;stroke-dasharray:none" />
    <path
       d="m 5097,4473 c -3,-5 -8,-28 -12,-53 -8,-51 -25,-111 -37,-124 -4,-6 -8,-22 -8,-37 0,-15 -4,-31 -10,-34 -5,-3 -10,-17 -10,-30 0,-13 -4,-27 -10,-30 -5,-3 -10,-19 -10,-35 0,-16 -4,-32 -10,-35 -5,-3 -10,-17 -10,-31 0,-13 -4,-24 -10,-24 -5,0 -10,-13 -10,-29 0,-17 -4,-33 -10,-36 -5,-3 -10,-17 -10,-30 0,-13 -4,-27 -10,-30 -5,-3 -10,-17 -10,-30 0,-13 -4,-27 -10,-30 -5,-3 -10,-17 -10,-30 0,-13 -4,-27 -10,-30 -5,-3 -10,-17 -10,-30 0,-13 -4,-27 -10,-30 -5,-3 -10,-15 -10,-26 0,-10 -4,-27 -9,-37 -22,-44 -51,-131 -51,-155 0,-9 -4,-17 -10,-17 -5,0 -10,-13 -10,-29 0,-17 -4,-33 -10,-36 -5,-3 -10,-17 -10,-30 0,-13 -4,-27 -10,-30 -5,-3 -10,-17 -10,-30 0,-13 -4,-27 -10,-30 -5,-3 -10,-21 -10,-40 0,-19 -4,-37 -10,-40 -5,-3 -10,-19 -10,-35 0,-16 -4,-32 -10,-35 -5,-3 -10,-26 -10,-50 0,-24 -4,-47 -10,-50 -5,-3 -10,-23 -10,-44 0,-20 -4,-41 -9,-46 -8,-9 -12,-30 -27,-142 -3,-24 -10,-43 -15,-43 -5,0 -9,-18 -9,-39 0,-22 -4,-43 -10,-46 -5,-3 -10,-24 -10,-45 0,-21 -4,-42 -10,-45 -5,-3 -10,-21 -10,-40 0,-19 -4,-37 -10,-40 -5,-3 -10,-21 -10,-40 0,-19 -4,-37 -10,-40 -5,-3 -10,-24 -10,-45 0,-21 -4,-41 -9,-44 -5,-3 -11,-23 -14,-43 -11,-72 -18,-108 -27,-128 -5,-11 -12,-42 -15,-70 -14,-124 -17,-141 -25,-160 -5,-11 -12,-56 -15,-100 -11,-147 -20,-340 -17,-352 3,-8 21,-13 46,-13 23,0 46,-4 51,-9 10,-9 64,-16 210,-27 39,-2 79,-9 90,-15 26,-12 598,-5 715,10 47,6 110,13 140,16 30,3 64,10 75,15 11,5 36,11 55,12 l 35,3 -4,114 c -1,63 -7,126 -12,139 -5,13 -9,51 -9,86 0,34 -4,66 -9,72 -5,5 -12,36 -14,69 -3,33 -11,85 -17,115 -6,30 -14,75 -17,100 -3,25 -9,49 -14,54 -5,6 -9,25 -9,42 0,18 -4,36 -10,39 -5,3 -10,24 -10,45 0,21 -4,42 -10,45 -5,3 -10,24 -10,45 0,21 -4,42 -10,45 -5,3 -10,21 -10,40 0,19 -4,37 -10,40 -5,3 -10,21 -10,40 0,19 -4,37 -10,40 -5,3 -10,24 -10,45 0,21 -4,42 -10,45 -5,3 -10,23 -10,44 0,20 -4,41 -9,47 -8,8 -14,37 -27,144 -3,25 -10,49 -15,55 -5,5 -9,26 -9,46 0,21 -4,41 -10,44 -5,3 -10,24 -10,45 0,21 -4,42 -10,45 -5,3 -10,21 -10,40 0,19 -4,37 -10,40 -5,3 -10,22 -10,41 0,19 -4,34 -10,34 -5,0 -10,13 -10,29 0,17 -4,33 -10,36 -5,3 -10,19 -10,35 0,16 -4,32 -10,35 -5,3 -10,17 -10,30 0,13 -4,27 -10,30 -5,3 -10,17 -10,30 0,13 -4,27 -10,30 -5,3 -10,17 -10,30 0,13 -4,27 -10,30 -5,3 -10,17 -10,30 0,13 -4,27 -10,30 -5,3 -10,17 -10,30 0,13 -4,27 -10,30 -5,3 -10,17 -10,31 0,13 -4,24 -10,24 -5,0 -10,14 -10,30 0,17 -4,30 -10,30 -5,0 -10,11 -10,24 0,14 -4,28 -10,31 -5,3 -10,17 -10,30 0,13 -4,27 -10,30 -5,3 -10,19 -10,36 0,16 -4,29 -10,29 -5,0 -10,11 -10,24 0,14 -4,28 -10,31 -5,3 -10,19 -10,36 0,16 -4,29 -9,29 -5,0 -11,12 -14,28 -3,15 -11,45 -17,67 -6,22 -13,48 -14,57 -1,10 -5,21 -9,24 -4,4 -7,18 -7,30 0,23 -15,40 -23,27 z m 6,-365 c -5,-19 -3,-21 7,-11 10,10 17,4 33,-27 10,-22 23,-40 28,-40 5,0 9,-8 9,-19 0,-34 105,-328 117,-324 7,3 11,-17 11,-55 0,-36 6,-68 15,-83 24,-37 61,-145 82,-236 10,-45 22,-80 26,-77 4,2 10,0 14,-6 3,-5 1,-10 -6,-10 -13,0 -5,-60 10,-70 8,-5 13,-34 28,-167 4,-38 9,-50 19,-46 11,4 13,-4 8,-39 -5,-33 -1,-57 15,-94 11,-27 20,-56 18,-64 -3,-27 24,-140 74,-306 5,-17 9,-49 9,-72 0,-22 5,-44 10,-47 6,-3 10,-24 10,-45 0,-21 5,-42 10,-45 6,-3 10,-19 10,-35 0,-16 4,-31 9,-34 5,-4 12,-30 16,-59 4,-28 16,-104 27,-167 11,-63 21,-158 22,-210 l 1,-96 -34,-33 c -29,-29 -38,-32 -69,-26 -29,5 -34,4 -25,-7 9,-11 -3,-13 -68,-15 -44,-1 -87,-6 -97,-11 -24,-12 -641,-7 -672,5 -14,6 -53,9 -88,8 -39,-1 -69,3 -80,11 -23,18 -33,17 -26,-1 4,-8 1,-15 -5,-15 -6,0 -11,7 -11,15 0,8 -6,15 -12,15 -21,1 -57,36 -69,66 -15,40 -20,133 -9,169 5,17 16,84 25,150 9,66 25,156 36,199 11,44 18,88 16,98 -3,10 0,18 7,18 7,0 12,15 13,38 1,45 12,92 27,111 6,7 9,26 8,42 -2,15 4,39 13,53 9,13 15,30 14,38 -1,7 0,20 4,28 14,38 58,241 62,289 3,30 12,62 21,72 12,14 13,22 4,39 -9,17 -7,28 9,56 16,26 18,40 11,53 -7,13 -4,28 9,54 22,44 51,130 51,152 0,10 6,31 14,48 8,18 29,75 46,127 17,52 33,102 37,110 3,8 7,28 8,44 2,16 7,31 13,35 6,3 13,23 17,44 4,20 11,37 15,37 4,0 11,16 14,36 7,32 35,116 86,249 11,28 24,62 29,78 13,32 31,37 24,5 z"
       id="path15"
       style="stroke-width:8.33554154;stroke-dasharray:none" />
    <path
       d="m 4442,4368 c 2,-34 8,-63 13,-65 6,-2 9,22 7,62 -2,36 -8,65 -13,65 -6,0 -9,-27 -7,-62 z"
       id="path16"
       style="stroke-width:8.33554154;stroke-dasharray:none" />
    <path
       d="m 8680,4388 c 0,-42 8,-68 21,-68 14,0 10,63 -6,84 -14,19 -15,18 -15,-16 z"
       id="path17"
       style="stroke-width:8.33554154;stroke-dasharray:none" />
    <path
       d="m 5751,4347 c -10,-26 -3,-77 10,-77 5,0 9,23 9,50 0,55 -6,63 -19,27 z"
       id="path18"
       style="stroke-width:8.33554154;stroke-dasharray:none" />
    <path
       d="m 8670,4275 c 0,-14 5,-25 10,-25 6,0 10,11 10,25 0,14 -4,25 -10,25 -5,0 -10,-11 -10,-25 z"
       id="path19"
       style="stroke-width:8.33554154;stroke-dasharray:none" />
    <path
       d="m 4427,4283 c -11,-10 -8,-91 3,-98 6,-4 10,15 10,49 0,57 -1,61 -13,49 z"
       id="path20"
       style="stroke-width:8.33554154;stroke-dasharray:none" />
    <path
       d="m 1540,4236 c 0,-14 5,-26 10,-26 6,0 10,9 10,19 0,11 -4,23 -10,26 -6,4 -10,-5 -10,-19 z"
       id="path21"
       style="stroke-width:8.33554154;stroke-dasharray:none" />
    <path
       d="m 5770,4170 c 0,-27 5,-50 10,-50 6,0 10,23 10,50 0,28 -4,50 -10,50 -5,0 -10,-22 -10,-50 z"
       id="path22"
       style="stroke-width:8.33554154;stroke-dasharray:none" />
    <path
       d="m 8650,4195 c 0,-14 5,-25 10,-25 6,0 10,11 10,25 0,14 -4,25 -10,25 -5,0 -10,-11 -10,-25 z"
       id="path23"
       style="stroke-width:8.33554154;stroke-dasharray:none" />
    <path
       d="m 1560,4161 c 0,-12 5,-21 10,-21 6,0 10,6 10,14 0,8 -4,18 -10,21 -5,3 -10,-3 -10,-14 z"
       id="path24"
       style="stroke-width:8.33554154;stroke-dasharray:none" />
    <path
       d="m 8630,4130 c 0,-11 5,-20 10,-20 6,0 10,9 10,20 0,11 -4,20 -10,20 -5,0 -10,-9 -10,-20 z"
       id="path25"
       style="stroke-width:8.33554154;stroke-dasharray:none" />
    <path
       d="m 4400,4074 c 0,-27 4,-43 10,-39 6,3 10,24 10,46 0,21 -4,39 -10,39 -5,0 -10,-21 -10,-46 z"
       id="path26"
       style="stroke-width:8.33554154;stroke-dasharray:none" />
    <path
       d="m 5788,4078 c -8,-21 3,-98 13,-92 12,7 12,104 0,104 -5,0 -11,-6 -13,-12 z"
       id="path27"
       style="stroke-width:8.33554154;stroke-dasharray:none" />
    <path
       d="m 8617,4066 c -4,-10 -5,-21 -2,-24 9,-9 17,6 13,25 -3,17 -4,17 -11,-1 z"
       id="path28"
       style="stroke-width:8.33554154;stroke-dasharray:none" />
    <path
       d="m 4380,3926 c 0,-19 5,-38 10,-41 6,-4 10,10 10,34 0,23 -4,41 -10,41 -5,0 -10,-15 -10,-34 z"
       id="path29"
       style="stroke-width:8.33554154;stroke-dasharray:none" />
    <path
       d="m 5806,3914 c -9,-24 -7,-39 9,-60 13,-18 14,-15 15,29 0,46 -12,62 -24,31 z"
       id="path30"
       style="stroke-width:8.33554154;stroke-dasharray:none" />
    <path
       d="m 1470,3751 c 0,-5 7,-11 15,-15 9,-3 15,0 15,9 0,8 -7,15 -15,15 -8,0 -15,-4 -15,-9 z"
       id="path31"
       style="stroke-width:8.33554154;stroke-dasharray:none" />
    <path
       d="m 4294,3643 c -65,-103 -81,-131 -101,-175 -10,-21 -21,-38 -25,-38 -5,0 -8,-9 -8,-20 0,-11 -4,-20 -10,-20 -5,0 -10,-7 -10,-15 0,-8 -4,-23 -9,-33 -5,-9 -16,-34 -25,-54 -38,-90 -50,-118 -89,-198 -23,-47 -54,-104 -69,-127 -15,-23 -28,-46 -28,-52 0,-6 -4,-11 -9,-11 -5,0 -16,-16 -25,-35 -9,-19 -22,-40 -29,-47 -7,-7 -24,-29 -37,-48 -13,-19 -27,-37 -30,-40 -14,-10 -150,-220 -150,-230 0,-5 -4,-10 -9,-10 -5,0 -11,-8 -14,-17 -6,-18 -38,-74 -47,-83 -11,-10 -110,-215 -110,-227 0,-7 -4,-13 -10,-13 -5,0 -10,-13 -10,-29 0,-17 -4,-33 -10,-36 -5,-3 -10,-25 -10,-49 0,-23 -4,-46 -9,-52 -5,-5 -11,-30 -13,-55 -5,-45 -4,-47 28,-60 19,-7 34,-16 34,-21 0,-4 6,-8 13,-8 10,0 154,-67 239,-111 10,-5 24,-9 32,-9 8,0 16,-5 18,-11 3,-8 10,-9 23,-2 19,10 32,16 103,45 17,7 32,16 32,20 0,5 5,8 11,8 34,0 159,154 159,196 0,8 5,14 10,14 6,0 10,13 10,28 0,15 4,32 9,38 5,5 12,32 15,59 16,122 27,240 36,365 5,74 14,182 20,240 5,58 13,134 16,170 3,36 10,69 15,74 5,6 9,25 9,42 0,18 5,36 10,39 6,3 10,21 10,40 0,19 5,37 10,40 6,3 10,24 10,45 0,21 4,41 9,44 5,3 12,32 15,63 4,32 11,90 15,128 23,191 35,265 42,265 5,0 9,11 9,25 0,41 -15,29 -66,-52 z m -134,-528 c -8,-10 -9,-19 -3,-27 10,-13 10,-51 0,-78 -16,-47 -38,-254 -47,-449 -6,-123 -15,-244 -21,-269 -5,-25 -12,-82 -15,-126 -3,-45 -9,-82 -14,-84 -6,-2 -10,-15 -10,-29 0,-19 -4,-24 -16,-19 -14,5 -16,1 -11,-24 4,-17 2,-30 -3,-30 -6,0 -10,-9 -10,-19 0,-10 -7,-21 -15,-25 -8,-3 -15,-12 -15,-21 0,-8 -5,-15 -11,-15 -7,0 -22,-11 -35,-25 -13,-14 -30,-25 -38,-25 -10,0 -13,-6 -10,-15 5,-11 -1,-15 -25,-15 -17,0 -39,-5 -49,-11 -23,-14 -131,6 -138,26 -4,9 -16,12 -39,8 -27,-4 -34,-2 -40,16 -3,12 -15,21 -26,21 -10,0 -19,4 -19,9 0,6 -12,16 -27,23 -16,8 -29,23 -31,36 -2,12 -7,20 -12,17 -17,-10 -21,15 -7,42 8,15 20,50 26,78 7,27 25,68 41,92 16,24 27,49 24,57 -3,8 4,16 18,19 22,6 22,7 3,21 -19,14 -19,15 -2,21 9,4 17,14 17,22 0,9 6,13 14,10 9,-4 17,7 25,33 6,21 18,43 26,50 8,7 15,18 15,25 0,6 8,19 19,29 10,9 29,38 42,64 34,69 39,74 56,60 12,-10 13,-7 8,15 -5,17 -3,27 4,27 6,0 11,6 11,14 0,8 3,16 8,18 21,9 61,78 55,94 -5,13 -3,16 10,11 12,-4 14,-2 10,10 -4,10 -2,14 4,10 20,-12 45,4 40,25 -4,14 -1,18 9,14 9,-3 14,1 14,14 0,10 25,55 55,100 31,44 60,92 65,105 6,15 17,25 30,25 24,0 26,15 5,28 -14,7 -12,13 12,36 23,23 29,25 31,12 2,-9 -2,-23 -8,-31 z"
       id="path32"
       style="stroke-width:8.33554154;stroke-dasharray:none" />
    <path
       d="m 5855,3711 c -9,-15 -2,-85 9,-93 5,-3 13,-46 18,-95 4,-48 13,-119 18,-158 5,-38 12,-92 16,-120 3,-27 10,-54 15,-59 5,-6 9,-27 9,-48 0,-21 4,-38 9,-38 8,0 14,-24 27,-122 3,-24 9,-52 14,-63 9,-21 16,-82 31,-285 5,-69 13,-174 18,-235 6,-60 13,-146 16,-190 4,-44 11,-84 16,-90 5,-5 9,-24 9,-41 0,-18 5,-36 10,-39 6,-3 10,-17 10,-30 0,-13 5,-27 10,-30 6,-3 10,-15 10,-26 0,-10 3,-19 8,-19 4,0 13,-13 20,-29 16,-36 60,-83 101,-107 17,-10 31,-22 31,-26 0,-4 9,-8 20,-8 11,0 20,-4 20,-10 0,-5 7,-10 15,-10 8,0 24,-5 35,-10 11,-5 29,-15 40,-20 29,-14 45,-13 85,10 20,11 44,20 55,20 11,0 20,5 20,10 0,6 9,10 20,10 11,0 20,5 20,10 0,6 6,10 13,10 18,0 67,24 67,33 0,4 5,7 12,7 7,0 34,10 61,23 l 48,22 -5,45 c -11,95 -18,135 -27,144 -5,6 -9,20 -9,32 0,13 -4,26 -10,29 -5,3 -10,17 -10,31 0,13 -4,24 -10,24 -5,0 -10,6 -10,13 0,12 -79,177 -90,187 -6,6 -27,42 -54,95 -12,22 -29,49 -38,59 -10,11 -18,25 -18,32 0,7 -4,14 -8,16 -5,2 -28,32 -52,67 -23,35 -49,71 -56,80 -42,52 -84,113 -84,121 0,6 -4,10 -8,10 -5,0 -15,12 -23,28 -8,15 -16,29 -19,32 -9,9 -40,65 -58,103 -9,20 -20,37 -24,37 -5,0 -8,6 -8,14 0,8 -10,34 -21,58 -12,23 -25,52 -29,63 -4,11 -18,43 -30,70 -12,28 -26,59 -30,70 -18,48 -76,163 -102,202 -15,23 -28,44 -28,48 0,3 -16,31 -35,61 -19,30 -35,59 -35,64 0,14 -18,22 -25,11 z m 208,-619 c -6,-22 -31,-57 -37,-51 -3,2 0,26 6,54 9,43 12,47 23,31 7,-9 11,-25 8,-34 z m 35,-48 c 14,-9 22,-25 21,-37 -2,-35 1,-43 10,-28 11,17 26,8 44,-28 10,-21 11,-33 4,-40 -7,-7 -3,-13 14,-20 23,-8 39,-31 53,-73 3,-10 12,-18 20,-18 8,0 20,-13 28,-30 7,-16 16,-30 20,-30 5,0 8,-7 8,-16 0,-17 55,-93 78,-107 7,-5 10,-17 7,-28 -5,-14 -3,-17 9,-13 11,4 16,1 16,-10 0,-9 5,-16 10,-16 6,0 10,-5 10,-10 0,-6 11,-23 25,-37 13,-15 27,-40 31,-56 3,-17 14,-32 25,-34 11,-3 19,-14 19,-27 0,-12 14,-38 31,-59 24,-29 30,-44 25,-63 -5,-18 -3,-25 6,-22 14,5 36,-36 74,-136 15,-39 31,-74 37,-77 5,-4 4,-9 -2,-14 -9,-5 -9,-10 -1,-20 12,-15 -11,-85 -29,-85 -5,0 -13,-9 -16,-20 -3,-11 -13,-20 -21,-20 -8,0 -14,-7 -14,-16 0,-12 -7,-14 -29,-9 -20,4 -30,2 -34,-8 -12,-31 -157,-49 -192,-23 -10,7 -28,11 -39,8 -17,-4 -19,-2 -8,9 17,18 15,34 -2,20 -11,-9 -18,-8 -30,5 -9,9 -23,14 -30,11 -15,-6 -66,62 -66,88 0,8 -4,15 -10,15 -5,0 -7,-7 -4,-15 4,-8 2,-15 -4,-15 -14,0 -23,28 -12,35 16,10 12,45 -5,45 -8,0 -12,6 -9,13 2,7 -3,31 -12,52 -18,44 -30,119 -39,245 -3,47 -8,96 -11,109 -3,13 -9,88 -13,167 -5,80 -14,150 -20,158 -12,14 -4,103 10,112 5,3 0,14 -10,25 -16,17 -19,33 -16,87 2,37 4,68 4,70 3,6 19,1 39,-14 z"
       id="path33"
       style="stroke-width:8.33554154;stroke-dasharray:none" />
    <path
       d="M 8720,2545 V 1465 l -1036,3 c -1277,3 -1428,-9 -424,-35 212,-5 1369,-6 1425,-1 57,6 67,62 71,388 1,135 3,247 4,250 6,14 7,150 1,150 -3,0 -7,177 -8,393 -3,545 -14,979 -24,997 -5,8 -9,-462 -9,-1065 z"
       id="path34"
       style="stroke-width:8.33554154;stroke-dasharray:none" />
    <path
       d="m 1478,3320 c -4,-14 -7,-407 -8,-874 0,-467 -3,-853 -6,-857 -3,-5 0,-9 6,-9 6,0 13,6 15,13 3,6 4,404 3,882 -2,479 -6,859 -10,845 z"
       id="path35"
       style="stroke-width:8.33554154;stroke-dasharray:none" />
    <path
       d="m 3020,2136 c 0,-11 30,-39 36,-34 2,3 -5,13 -16,23 -11,10 -20,15 -20,11 z"
       id="path36"
       style="stroke-width:8.33554154;stroke-dasharray:none" />
    <path
       d="m 7086,2044 c -11,-7 -17,-17 -13,-20 3,-4 14,1 23,10 21,22 15,28 -10,10 z"
       id="path37"
       style="stroke-width:8.33554154;stroke-dasharray:none" />
    <path
       d="m 6981,1984 c -7,-8 -10,-18 -6,-22 4,-4 10,-1 12,6 3,6 11,12 19,12 9,0 12,5 9,10 -8,14 -18,12 -34,-6 z"
       id="path38"
       style="stroke-width:8.33554154;stroke-dasharray:none" />
    <path
       d="m 4040,1610 c 0,-5 7,-10 15,-10 8,0 15,5 15,10 0,6 -7,10 -15,10 -8,0 -15,-4 -15,-10 z"
       id="path39"
       style="stroke-width:8.33554154;stroke-dasharray:none" />
    <path
       d="m 6160,1610 c 0,-5 7,-10 15,-10 8,0 15,5 15,10 0,6 -7,10 -15,10 -8,0 -15,-4 -15,-10 z"
       id="path40"
       style="stroke-width:8.33554154;stroke-dasharray:none" />
    <path
       d="m 4100,1590 c 0,-5 6,-10 14,-10 8,0 18,5 21,10 3,6 -3,10 -14,10 -12,0 -21,-4 -21,-10 z"
       id="path41"
       style="stroke-width:8.33554154;stroke-dasharray:none" />
    <path
       d="m 4160,1570 c 0,-5 11,-10 24,-10 14,0 28,5 31,10 4,6 -7,10 -24,10 -17,0 -31,-4 -31,-10 z"
       id="path42"
       style="stroke-width:8.33554154;stroke-dasharray:none" />
    <path
       d="m 6030,1570 c 20,-13 40,-13 40,0 0,6 -12,10 -27,10 -22,0 -25,-2 -13,-10 z"
       id="path43"
       style="stroke-width:8.33554154;stroke-dasharray:none" />
    <path
       d="m 4240,1550 c 0,-5 9,-10 20,-10 11,0 20,5 20,10 0,6 -9,10 -20,10 -11,0 -20,-4 -20,-10 z"
       id="path44"
       style="stroke-width:8.33554154;stroke-dasharray:none" />
    <path
       d="m 5945,1550 c 3,-5 15,-10 26,-10 10,0 19,5 19,10 0,6 -12,10 -26,10 -14,0 -23,-4 -19,-10 z"
       id="path45"
       style="stroke-width:8.33554154;stroke-dasharray:none" />
    <path
       d="m 1462,1539 c 2,-7 10,-15 17,-17 8,-3 12,1 9,9 -2,7 -10,15 -17,17 -8,3 -12,-1 -9,-9 z"
       id="path46"
       style="stroke-width:8.33554154;stroke-dasharray:none" />
    <path
       d="m 4310,1530 c 0,-5 9,-10 20,-10 11,0 20,5 20,10 0,6 -9,10 -20,10 -11,0 -20,-4 -20,-10 z"
       id="path47"
       style="stroke-width:8.33554154;stroke-dasharray:none" />
    <path
       d="m 5870,1530 c 0,-5 12,-10 26,-10 14,0 23,4 19,10 -3,6 -15,10 -26,10 -10,0 -19,-4 -19,-10 z"
       id="path48"
       style="stroke-width:8.33554154;stroke-dasharray:none" />
    <path
       d="m 3943,1478 c -38,-18 -28,-36 20,-34 23,1 55,-6 72,-15 39,-21 139,-44 159,-36 28,11 19,37 -13,37 -17,0 -33,5 -36,10 -3,6 -19,10 -35,10 -16,0 -32,5 -35,10 -3,6 -19,10 -36,10 -16,0 -29,5 -29,10 0,13 -39,12 -67,-2 z"
       id="path49"
       style="stroke-width:8.33554154;stroke-dasharray:none" />
    <path
       d="m 6220,1481 c 0,-5 6,-11 13,-14 6,-3 -7,-2 -30,0 -29,4 -43,2 -43,-6 0,-6 -16,-11 -35,-11 -19,0 -35,-4 -35,-10 0,-5 -16,-10 -36,-10 -28,0 -35,-3 -30,-15 4,-12 -3,-13 -39,-8 -31,4 -45,2 -45,-6 0,-6 -17,-11 -39,-11 -22,0 -43,-4 -46,-10 -3,-5 -28,-10 -55,-10 -27,0 -52,-4 -55,-10 -3,-5 -31,-10 -61,-10 -30,0 -54,-4 -54,-10 0,-6 -32,-10 -75,-10 -60,0 -75,-3 -75,-15 0,-8 7,-15 15,-15 8,0 15,-4 15,-10 0,-18 72,-11 107,11 22,14 42,19 58,15 13,-3 27,-2 30,4 3,5 15,10 27,10 17,0 18,-2 8,-15 -15,-18 -4,-20 14,-2 7,7 11,18 8,25 -3,9 2,10 20,3 34,-13 108,1 108,20 0,5 7,9 16,9 10,0 14,-6 10,-15 -8,-22 4,-18 30,10 23,25 64,34 64,15 0,-5 9,-10 20,-10 11,0 20,4 20,9 0,10 156,51 194,51 14,0 28,5 31,10 3,6 15,10 26,10 30,0 22,15 -14,28 -40,14 -67,15 -67,3 z"
       id="path50"
       style="stroke-width:8.33554154;stroke-dasharray:none" />
    <path
       d="m 1532,1453 c 3,-17 28,-18 378,-20 816,-5 1692,10 1627,28 -16,4 -474,8 -1019,9 -943,1 -989,0 -986,-17 z"
       id="path51"
       style="stroke-width:8.33554154;stroke-dasharray:none" />
    <path
       d="m 6413,1459 c 14,-8 22,-8 30,0 8,8 3,11 -18,11 -26,-1 -28,-2 -12,-11 z"
       id="path52"
       style="stroke-width:8.33554154;stroke-dasharray:none" />
    <path
       d="m 4233,1396 c 9,-7 17,-16 17,-19 0,-3 -8,-8 -17,-10 -10,-3 6,-5 36,-4 29,0 56,-5 60,-10 11,-16 43,-24 56,-13 14,12 77,9 86,-3 4,-5 28,-10 55,-11 27,-1 58,-7 69,-13 11,-6 35,-8 53,-6 19,3 43,1 55,-5 40,-20 162,-33 195,-21 21,7 102,9 239,5 310,-9 323,-8 323,5 0,18 -52,20 -373,17 -254,-2 -328,0 -332,10 -3,8 -29,12 -80,12 -43,0 -75,4 -75,10 0,6 -24,10 -54,10 -30,0 -58,5 -62,11 -4,7 -27,10 -59,7 -41,-4 -52,-2 -48,9 4,10 -7,13 -41,13 -25,0 -46,5 -46,10 0,6 -17,10 -37,10 -34,-1 -36,-2 -20,-14 z"
       id="path53"
       style="stroke-width:8.33554154;stroke-dasharray:none" />
  </g>
</svg>
